<svg xmlns="http://www.w3.org/2000/svg" xmlns:xlink="http://www.w3.org/1999/xlink" viewBox="0 0 338.59 290.9"><defs><style>.cls-1{fill:none;}.cls-2{fill:#f26363;}.cls-3{fill:#2d3962;}.cls-4{fill:#fff;}.cls-5{clip-path:url(#clip-path);}.cls-6{fill:#f9c0d8;}.cls-7{opacity:0.3;}.cls-8{clip-path:url(#clip-path-2);}.cls-9{clip-path:url(#clip-path-3);}.cls-10{clip-path:url(#clip-path-4);}.cls-11{clip-path:url(#clip-path-5);}.cls-12{fill:#e8b69c;}</style><clipPath id="clip-path"><rect id="SVGID" class="cls-1" x="10.96" y="81.63" width="233.21" height="137.37" rx="5.38"/></clipPath><clipPath id="clip-path-2"><rect id="SVGID-2" data-name="SVGID" class="cls-1" x="171.98" y="189.39" width="61.05" height="39.81" rx="1.83"/></clipPath><clipPath id="clip-path-3"><rect id="SVGID-3" data-name="SVGID" class="cls-1" x="20.41" y="95.91" width="101.03" height="65.88" rx="3.03"/></clipPath><clipPath id="clip-path-4"><rect id="SVGID-4" data-name="SVGID" class="cls-1" x="171.98" y="95.91" width="61.05" height="39.81" rx="1.83"/></clipPath><clipPath id="clip-path-5"><rect id="SVGID-5" data-name="SVGID" class="cls-1" x="171.98" y="142.65" width="61.05" height="39.81" rx="1.83"/></clipPath></defs><g id="Layer_2" data-name="Layer 2"><g id="OBJECTS"><g id="freepik--Character--inject-114"><path class="cls-2" d="M262.41,125.73c-13.23-.11-16.53-6.32-16.53-6.32s-12.56,7.78-14.76,12c-16.56,31.86-13.64,159.47-13.64,159.47l120.14,0s.64-38.86.32-69.12c-.37-34.87,4.62-68.31-8.22-84-15.18-18.51-43.41-20.92-43.41-20.92C279.47,125.82,270.45,125.8,262.41,125.73Z"/><rect class="cls-3" y="72.81" width="255.13" height="167.97" rx="11.59"/><rect class="cls-4" x="10.96" y="81.63" width="233.21" height="137.37" rx="5.38"/><polygon class="cls-3" points="155.87 266.28 99.26 266.28 102.76 233.63 151.74 233.63 155.87 266.28"/><rect class="cls-3" x="88.33" y="264.78" width="78.47" height="7.49" rx="1.98"/><path class="cls-2" d="M140.89,231.88H114.25a1.35,1.35,0,0,1-1.36-1.35h0a1.36,1.36,0,0,1,1.36-1.35h26.64a1.36,1.36,0,0,1,1.35,1.35h0A1.35,1.35,0,0,1,140.89,231.88Z"/><g class="cls-5"><path class="cls-3" d="M156.1,171.46H129.62a1.47,1.47,0,0,1-1.47-1.47h0a1.47,1.47,0,0,1,1.47-1.47H156.1a1.47,1.47,0,0,1,1.47,1.47h0A1.47,1.47,0,0,1,156.1,171.46Z"/><path class="cls-6" d="M165.79,177.65H129.24a.59.59,0,0,1-.6-.59h0a.6.6,0,0,1,.6-.6h36.55a.6.6,0,0,1,.6.6h0A.59.59,0,0,1,165.79,177.65Z"/><path class="cls-6" d="M165.79,182H129.24a.6.6,0,0,1-.6-.6h0a.6.6,0,0,1,.6-.59h36.55a.6.6,0,0,1,.6.59h0A.6.6,0,0,1,165.79,182Z"/><path class="cls-6" d="M165.79,186.39H129.24a.6.6,0,0,1-.6-.6h0a.6.6,0,0,1,.6-.6h36.55a.6.6,0,0,1,.6.6h0A.6.6,0,0,1,165.79,186.39Z"/><path class="cls-6" d="M165.79,190.75H129.24a.59.59,0,0,1-.6-.59h0a.6.6,0,0,1,.6-.6h36.55a.6.6,0,0,1,.6.6h0A.59.59,0,0,1,165.79,190.75Z"/><path class="cls-6" d="M165.79,195.12H129.24a.6.6,0,0,1-.6-.6h0a.59.59,0,0,1,.6-.59h36.55a.59.59,0,0,1,.6.59h0A.6.6,0,0,1,165.79,195.12Z"/><path class="cls-6" d="M165.79,199.49H129.24a.6.6,0,0,1-.6-.6h0a.6.6,0,0,1,.6-.6h36.55a.6.6,0,0,1,.6.6h0A.6.6,0,0,1,165.79,199.49Z"/><path class="cls-6" d="M165.79,208.22H129.24a.6.6,0,0,1-.6-.6h0a.59.59,0,0,1,.6-.59h36.55a.59.59,0,0,1,.6.59h0A.6.6,0,0,1,165.79,208.22Z"/><path class="cls-6" d="M165.79,217H129.24a.6.6,0,0,1-.6-.59h0a.6.6,0,0,1,.6-.6h36.55a.6.6,0,0,1,.6.6h0A.6.6,0,0,1,165.79,217Z"/><path class="cls-6" d="M165.79,225.68H129.24a.59.59,0,0,1-.6-.59h0a.6.6,0,0,1,.6-.6h36.55a.6.6,0,0,1,.6.6h0A.59.59,0,0,1,165.79,225.68Z"/><path class="cls-6" d="M154.68,230.05H129.24a.6.6,0,0,1-.6-.6h0a.6.6,0,0,1,.6-.59h25.44a.6.6,0,0,1,.6.59h0A.6.6,0,0,1,154.68,230.05Z"/><path class="cls-6" d="M165.79,203.85H129.24a.59.59,0,0,1-.6-.59h0a.6.6,0,0,1,.6-.6h36.55a.6.6,0,0,1,.6.6h0A.59.59,0,0,1,165.79,203.85Z"/><path class="cls-6" d="M165.79,212.59H129.24a.6.6,0,0,1-.6-.6h0a.6.6,0,0,1,.6-.6h36.55a.6.6,0,0,1,.6.6h0A.6.6,0,0,1,165.79,212.59Z"/><path class="cls-6" d="M165.79,221.32H129.24a.6.6,0,0,1-.6-.6h0a.59.59,0,0,1,.6-.59h36.55a.59.59,0,0,1,.6.59h0A.6.6,0,0,1,165.79,221.32Z"/><g class="cls-7"><rect class="cls-6" x="171.98" y="189.39" width="61.05" height="39.81" rx="1.83"/></g><g class="cls-8"><polygon class="cls-6" points="173.07 230.42 194.22 198.81 207.12 218.75 215.99 208.19 233.16 230.8 173.07 230.42"/><path class="cls-6" d="M211.81,202.43a4.93,4.93,0,1,1-4.93-4.92A4.93,4.93,0,0,1,211.81,202.43Z"/></g><g class="cls-7"><rect class="cls-6" x="20.41" y="95.91" width="101.03" height="65.88" rx="3.03"/></g><g class="cls-9"><polygon class="cls-6" points="22.21 163.81 57.2 111.5 78.55 144.5 93.23 127.02 121.65 164.44 22.21 163.81"/><circle class="cls-6" cx="78.15" cy="117.5" r="8.16"/></g><rect class="cls-3" x="21.78" y="167.05" width="48.5" height="3.76" rx="1.74"/><rect class="cls-6" x="22.33" y="172.67" width="42.7" height="1.52"/><rect class="cls-6" x="22.33" y="176.23" width="36.11" height="1.52"/><path class="cls-3" d="M156.1,98.85H129.62a1.47,1.47,0,0,1-1.47-1.47h0a1.47,1.47,0,0,1,1.47-1.47H156.1a1.47,1.47,0,0,1,1.47,1.47h0A1.47,1.47,0,0,1,156.1,98.85Z"/><path class="cls-6" d="M165.79,105.05H129.24a.6.6,0,0,1-.6-.6h0a.59.59,0,0,1,.6-.59h36.55a.59.59,0,0,1,.6.59h0A.6.6,0,0,1,165.79,105.05Z"/><path class="cls-6" d="M165.79,109.41H129.24a.59.59,0,0,1-.6-.59h0a.6.6,0,0,1,.6-.6h36.55a.6.6,0,0,1,.6.6h0A.59.59,0,0,1,165.79,109.41Z"/><path class="cls-6" d="M165.79,113.78H129.24a.6.6,0,0,1-.6-.6h0a.59.59,0,0,1,.6-.59h36.55a.59.59,0,0,1,.6.59h0A.6.6,0,0,1,165.79,113.78Z"/><path class="cls-6" d="M165.79,118.15H129.24a.6.6,0,0,1-.6-.6h0a.6.6,0,0,1,.6-.6h36.55a.6.6,0,0,1,.6.6h0A.6.6,0,0,1,165.79,118.15Z"/><path class="cls-6" d="M165.79,122.51H129.24a.59.59,0,0,1-.6-.59h0a.6.6,0,0,1,.6-.6h36.55a.6.6,0,0,1,.6.6h0A.59.59,0,0,1,165.79,122.51Z"/><path class="cls-6" d="M165.79,126.88H129.24a.6.6,0,0,1-.6-.6h0a.59.59,0,0,1,.6-.59h36.55a.59.59,0,0,1,.6.59h0A.6.6,0,0,1,165.79,126.88Z"/><path class="cls-6" d="M165.79,135.61H129.24a.59.59,0,0,1-.6-.59h0a.6.6,0,0,1,.6-.6h36.55a.6.6,0,0,1,.6.6h0A.59.59,0,0,1,165.79,135.61Z"/><path class="cls-6" d="M165.79,144.34H129.24a.59.59,0,0,1-.6-.59h0a.6.6,0,0,1,.6-.6h36.55a.6.6,0,0,1,.6.6h0A.59.59,0,0,1,165.79,144.34Z"/><path class="cls-6" d="M165.79,153.08H129.24a.6.6,0,0,1-.6-.6h0a.59.59,0,0,1,.6-.59h36.55a.59.59,0,0,1,.6.59h0A.6.6,0,0,1,165.79,153.08Z"/><path class="cls-6" d="M154.68,157.44H129.24a.59.59,0,0,1-.6-.59h0a.6.6,0,0,1,.6-.6h25.44a.6.6,0,0,1,.6.6h0A.59.59,0,0,1,154.68,157.44Z"/><path class="cls-6" d="M165.79,131.25H129.24a.6.6,0,0,1-.6-.6h0a.6.6,0,0,1,.6-.6h36.55a.6.6,0,0,1,.6.6h0A.6.6,0,0,1,165.79,131.25Z"/><path class="cls-6" d="M165.79,140H129.24a.6.6,0,0,1-.6-.6h0a.59.59,0,0,1,.6-.59h36.55a.59.59,0,0,1,.6.59h0A.6.6,0,0,1,165.79,140Z"/><path class="cls-6" d="M165.79,148.71H129.24a.6.6,0,0,1-.6-.59h0a.6.6,0,0,1,.6-.6h36.55a.6.6,0,0,1,.6.6h0A.6.6,0,0,1,165.79,148.71Z"/><g class="cls-7"><rect class="cls-6" x="20.76" y="184.13" width="28.42" height="28.42" rx="2.4"/></g><g class="cls-7"><rect class="cls-6" x="54.34" y="184.13" width="28.42" height="28.42" rx="2.4"/></g><g class="cls-7"><rect class="cls-6" x="87.92" y="184.13" width="28.42" height="28.42" rx="2.4"/></g><g class="cls-7"><rect class="cls-6" x="171.98" y="95.91" width="61.05" height="39.81" rx="1.83"/></g><g class="cls-10"><polygon class="cls-6" points="173.07 136.94 194.22 105.33 207.12 125.27 215.99 114.71 233.16 137.32 173.07 136.94"/><path class="cls-6" d="M211.81,109a4.93,4.93,0,1,1-4.93-4.93A4.93,4.93,0,0,1,211.81,109Z"/></g><g class="cls-7"><rect class="cls-6" x="171.98" y="142.65" width="61.05" height="39.81" rx="1.83"/></g><g class="cls-11"><polygon class="cls-6" points="173.07 183.68 194.22 152.07 207.12 172.01 215.99 161.45 233.16 184.06 173.07 183.68"/><path class="cls-6" d="M211.81,155.7a4.93,4.93,0,1,1-4.93-4.93A4.93,4.93,0,0,1,211.81,155.7Z"/></g><path class="cls-3" d="M24.8,90.14a2,2,0,1,1-2-2A2,2,0,0,1,24.8,90.14Z"/><path class="cls-6" d="M28.47,88.16a2,2,0,1,1-2,2A2,2,0,0,1,28.47,88.16Z"/><g class="cls-7"><circle class="cls-6" cx="34.03" cy="90.14" r="1.98"/></g></g><path class="cls-12" d="M197.39,238.41a101.73,101.73,0,0,0-12.19-.61c-7.69.2-17.09-2.71-23.6-3.12-3.31-.21-4.56.95-4.86,2-.76,2.76,1.95,4.44,1.95,4.44-2.58.65-4.39.58-4.68,3.45-.32,3.16,4.51,3.94,4.51,3.94A3.54,3.54,0,0,0,155,252c-.3,3.59,5,4,6.36,4.54a4.17,4.17,0,0,0-1.83,2.25,3.11,3.11,0,0,0,2.13,3.11,63.93,63.93,0,0,0,17.11.61c7.5-.71,17.46-1.19,17.46-1.19Z"/><path class="cls-3" d="M161.33,257.46a.94.94,0,0,1-.36-.08,10.89,10.89,0,0,0-1.1-.31c-2.15-.53-6.14-1.51-5.83-5.17a4.39,4.39,0,0,1,4.49-4.28.94.94,0,0,1,0,1.87h0a2.56,2.56,0,0,0-2.61,2.57c-.16,1.91,2,2.6,4.41,3.2a9.42,9.42,0,0,1,1.39.4.94.94,0,0,1-.37,1.8Z"/><path class="cls-12" d="M172.36,229.58c2.07-2.91,6.11-.39,10.81,3.09,2.22,1.66,6.83,4.18,7.7,5.91,1.27,2.55-10.18,1-10.18,1S168.21,235.43,172.36,229.58Z"/><path class="cls-3" d="M158.52,249.49h-.15c-2.12-.34-5.62-1.77-5.29-4.95.28-2.8,1.87-3.44,3.69-3.88a4.61,4.61,0,0,1-.93-4.17c.25-.92,1.34-3,5.82-2.73a82,82,0,0,1,9.31,1.4l.95.18a5.79,5.79,0,0,1-1.27-2.57,4.83,4.83,0,0,1,.95-3.72,3.79,3.79,0,0,1,2.52-1.62c2.45-.38,5.48,1.44,9.61,4.5.63.47,1.47,1,2.37,1.61a30.36,30.36,0,0,1,4.8,3.56,55.37,55.37,0,0,0,7.55-.54.94.94,0,0,1,1.06.8.93.93,0,0,1-.8,1.05,50.18,50.18,0,0,1-8.35.52,1,1,0,0,1-.62-.33,26.33,26.33,0,0,0-4.66-3.5c-.92-.6-1.79-1.16-2.47-1.66-3.14-2.34-6.3-4.47-8.2-4.16a1.89,1.89,0,0,0-1.28.85,3,3,0,0,0-.64,2.3c.22,1.17,1.28,2.43,3.08,3.64a.94.94,0,0,1-.68,1.7c-1.43-.24-2.86-.51-4.26-.77a82.31,82.31,0,0,0-9.09-1.38c-2.16-.14-3.63.37-3.9,1.37-.56,2,1.46,3.35,1.55,3.4a.93.93,0,0,1-.27,1.7l-1.08.25c-2,.44-2.72.6-2.9,2.39-.23,2.23,3.69,2.91,3.73,2.91a1,1,0,0,1,.77,1.08A.93.93,0,0,1,158.52,249.49Z"/><path class="cls-3" d="M162.57,257.41c-.7,0-1.41,0-2.13,0a.94.94,0,0,1-.89-1,1,1,0,0,1,1-.9,71.27,71.27,0,0,0,8.14-.22.94.94,0,0,1,.14,1.87C167.05,257.28,164.86,257.41,162.57,257.41Z"/><path class="cls-3" d="M168.45,250h0c-3,0-5.48-.18-8.39-.39l-3.16-.22a.94.94,0,0,1,.12-1.87l3.17.22c2.88.21,5.36.39,8.27.39a.94.94,0,0,1,.93.94A.93.93,0,0,1,168.45,250Z"/><path class="cls-3" d="M168.43,242.63h0a68.36,68.36,0,0,1-10.82-.86.93.93,0,0,1-.78-1.07.92.92,0,0,1,1.06-.78,66.42,66.42,0,0,0,10.58.84.94.94,0,0,1,0,1.87Z"/><path class="cls-2" d="M313.34,261.06C300.85,268.44,197,265,197,265l-.57-32.92,85.42-11.5s1.24-114.6,40.77-90.5c6.67,4.07,15.42,15.25,14.71,33.45C335.79,202,319.23,257.58,313.34,261.06Z"/><path class="cls-3" d="M227.21,266.39c-16.38,0-28.87-.38-30.28-.42a.94.94,0,0,1-.91-.92l-.57-32.93a1,1,0,0,1,.82-.94l83.45-10.72,6.78-44.29a.94.94,0,0,1,1.85.28l-6.89,45a.92.92,0,0,1-.8.78l-83.32,10.71.54,31.2c9.93.27,99.26,2.39,114-7.92,4.52-3.17,9.25-14.6,13.69-33.07C329,209,331,195.75,331,195.62a.93.93,0,1,1,1.84.28c-.32,2.18-8.17,53.64-19.88,61.84C302.48,265.06,258,266.39,227.21,266.39Z"/><path class="cls-12" d="M223.64,31.68s-11,32.14-8.95,51.77c1.94,18.54,19.6,30.38,36.17,30.39v11.5s27.39,10,41.49-6.43l.9-22-.2-62.16-7.94-12.28-55.29-8.16Z"/><path class="cls-3" d="M250.76,61.4a3.22,3.22,0,1,1-2.19-4A3.23,3.23,0,0,1,250.76,61.4Z"/><path class="cls-3" d="M232,56.38a3.23,3.23,0,1,1-2.2-4A3.22,3.22,0,0,1,232,56.38Z"/><path class="cls-3" d="M246.49,48.05c2.43-1.35,7.84,1.26,9.29,2.39a2.67,2.67,0,0,1-.81,3.13c-1.91,1.5-7-.82-8.9-1.4a1.12,1.12,0,0,1-.44-.21,1,1,0,0,1-.22-.55,4.25,4.25,0,0,1,.1-2.24A2.21,2.21,0,0,1,246.49,48.05Z"/><path class="cls-3" d="M226.14,43c2.41-1.4,7.86,1.1,9.33,2.2a2.65,2.65,0,0,1-.74,3.14c-1.88,1.54-7-.67-8.93-1.21a1.06,1.06,0,0,1-.44-.21,1,1,0,0,1-.23-.54,4.25,4.25,0,0,1,.05-2.24A2.18,2.18,0,0,1,226.14,43Z"/><path class="cls-12" d="M287.65,65.81c5.47-2.06,15.84-5.67,20.69-1.5,4.12,3.54,4,10,.09,14-6.4,6.48-18.33,8.85-21.87,9.79"/><path class="cls-3" d="M257.57,4.92c4,.12,28.79,1.37,38.49,4.44,5.17,1.63,10.3,4.18,13.54,8.45a24.16,24.16,0,0,1,4.22,10.94c1.64,10.25-3.55,38.42-3.55,38.42s-4-3.08-10.92-2.83a50.32,50.32,0,0,0-6.94,1.11c-.73.17-.75,14.51-1.42,14.48l-8.84-1.08c-.64,0,.14-37.62-.24-38.11-1.7-2.19-8.54-8.31-19.21-7.26-13.06,1.27-29.06,6-39.91-.77-6.93-4.31-10.34-13.78-8-22.3C215,9.78,219.26-.43,232.34,0,238.4.22,248.17,4.66,257.57,4.92Z"/><path class="cls-3" d="M236.45,79.12a11.27,11.27,0,0,1-2.24-.22A5.93,5.93,0,0,1,230.62,77a.93.93,0,0,1,.13-1.31.94.94,0,0,1,1.32.13,4.16,4.16,0,0,0,2.51,1.28,9.65,9.65,0,0,0,5.92-.7.93.93,0,1,1,.78,1.69A11.52,11.52,0,0,1,236.45,79.12Z"/><path class="cls-3" d="M305.28,74.68a.93.93,0,0,1-.89-.65,8.14,8.14,0,0,0-4.26-4.83.93.93,0,1,1,.79-1.69,10,10,0,0,1,5.25,5.95.93.93,0,0,1-.61,1.17A.92.92,0,0,1,305.28,74.68Z"/><path class="cls-3" d="M299.16,75.67a.94.94,0,0,1-.87-.6,1,1,0,0,1,.54-1.21c1.74-.67,3.48-2.55,3.53-3.12a.91.91,0,0,1,.74-1.07,1,1,0,0,1,1.1.77c.34,1.72-2.6,4.36-4.7,5.17A1,1,0,0,1,299.16,75.67Z"/><path class="cls-3" d="M236,71.91h-.1a3.34,3.34,0,0,1-1.29-6.26,3.4,3.4,0,0,1,1.73-.48l.28-1.08a.94.94,0,0,1,1.81.48l-.49,1.88a.95.95,0,0,1-1.2.65,1.48,1.48,0,0,0-1.66,2.31,1.52,1.52,0,0,0,1,.65.93.93,0,0,1-.1,1.86Z"/><path class="cls-3" d="M250.43,115.22a34.14,34.14,0,0,1-13.55-2.88.93.93,0,1,1,.74-1.71c13.51,5.78,24,.42,24.06.37a.94.94,0,0,1,1.27.38,1,1,0,0,1-.39,1.27A27.74,27.74,0,0,1,250.43,115.22Z"/><path class="cls-3" d="M269.52,129.78A58,58,0,0,1,250.58,126a.94.94,0,0,1-.52-1.22.93.93,0,0,1,1.21-.52c.1,0,9.69,3.82,19,3.6,15.74-.36,21.39-9.38,21.45-9.47a.94.94,0,0,1,1.28-.32,1,1,0,0,1,.32,1.29c-.25.41-6.26,10-23,10.37Z"/><path class="cls-12" d="M140.78,69.25c1,4.33,3.86,16.58-.2,17.77-3.28,1-6.9-2.29-6.9-8.88,0,0,2.3,9.66-2,10.2-1.4.17-5.22.58-5.52-8.4,0,0,.8,8.27-2.19,8.57s-4.09-1.39-4.39-8.87c0,0,.6,6-1.8,6S113,85.33,113,74.85s5.69-5.69,5.69-5.69-.06-4.58,3.89-4.79a4.51,4.51,0,0,1,4.29,2.84s-.36-3.76,3.24-4A3.33,3.33,0,0,1,134,66.47s.51-3,3.28-2.6C139.44,64.16,140.42,67.7,140.78,69.25Z"/><path class="cls-3" d="M135.56,85.64a.94.94,0,0,1-.93-.8l-1.35-9.67a.93.93,0,0,1,.8-1,.92.92,0,0,1,1,.8l1.35,9.66a.92.92,0,0,1-.79,1Z"/><path class="cls-3" d="M127.06,86.61a1,1,0,0,1-.93-.78c-.39-2.35-.76-10-.78-10.35a.94.94,0,0,1,1.87-.09c0,.07.39,7.89.76,10.13a.93.93,0,0,1-.77,1.07Z"/><path class="cls-3" d="M119.71,84.48a.92.92,0,0,1-.9-.71c-.2-.8-.7-7-.8-8.27a.93.93,0,0,1,1.86-.14c.24,3,.63,7.45.75,8a.94.94,0,0,1-.69,1.13A.83.83,0,0,1,119.71,84.48Z"/><path class="cls-12" d="M153,72.83c.19-3.11-9.67-5.21-15.59-5.58l1.16,6.26S152.79,76,153,72.83Z"/><path class="cls-3" d="M142.36,79a.94.94,0,0,1-.93-.84l-.74-6.81a.93.93,0,0,1,.83-1,.92.92,0,0,1,1,.83l.74,6.81a.93.93,0,0,1-.83,1Z"/></g></g></g></svg>