<svg xmlns="http://www.w3.org/2000/svg" viewBox="0 0 2493.13 1557.77"><defs><style>.cls-1{fill:#daebe8;}.cls-2{fill:#b8d5dc;}.cls-3{opacity:0.6;}.cls-4{fill:#acc9c5;}.cls-5{fill:#ccd39c;}.cls-6{fill:#c2c68e;}.cls-7{opacity:0.5;}.cls-8{fill:#68a1bf;}.cls-9{fill:#fff;}.cls-10{opacity:0.4;}.cls-11{fill:#92bcb5;}.cls-12{fill:#5c305d;}.cls-13{fill:#a9caec;}.cls-14{fill:#764678;}.cls-15{fill:#331832;}.cls-16{fill:#366f90;}.cls-17{fill:#ef8062;}.cls-18{fill:#8fb3e3;}.cls-19{fill:#ffb27d;}.cls-20{opacity:0.3;}.cls-21{fill:#ec865c;}.cls-22{fill:#e9845c;}.cls-23{fill:#020202;}.cls-24{fill:#e1986c;}.cls-25{fill:#080435;}.cls-26{fill:#92a5e6;}.cls-27{fill:#e9633e;}.cls-28{fill:#6da49a;}.cls-29{fill:#73b3ce;}</style></defs><g id="Layer_2" data-name="Layer 2"><g id="_Layer_" data-name="&lt;Layer&gt;"><path class="cls-1" d="M2168.1,1543.68c-207.54,24.71-421.36,14.41-858.26-11.45-245.33-14.52-738.6,9.54-984.81,11.45-179.5,1.39-325-126.09-325-281.62v-970C0,136.56,145.83,1.32,325,10.47,491.44,19,736.22,52.6,991.38,32,1294.86,7.51,1870.87-13.3,2168.1,10.47c178.75,14.3,325,126.09,325,281.62v970C2493.13,1417.59,2345.94,1522.5,2168.1,1543.68Z"/><ellipse class="cls-2" cx="1234.81" cy="1293.09" rx="1077.52" ry="120.33"/><g class="cls-3"><path class="cls-4" d="M1758.5,1033S1873,550.83,2002.71,586.82s-148.34,306.1-177.23,447.52Z"/></g><path class="cls-5" d="M1767.77,940s291.15-362.87,408-275.54-260.64,197.39-341.32,305.87Z"/><path class="cls-6" d="M1804.91,957.31c54.36-75.93,139.06-139.09,200.55-178.71,66.66-43,121.12-68.23,121.66-68.48l-1.57-3.39c-.54.25-55.23,25.64-122.11,68.73-61.76,39.8-146.86,103.27-201.56,179.68Z"/><path class="cls-4" d="M2231.66,1143.29c-68.12,11-62.27,113.58-138,90.65s-90.38-22.16-107.81,3.84c0,0-16.06,31.47-46.86,35.23-121.55,14.82-276.88-171.92-146.09-263.48,9.44-6.62,22.79-8.65,37.53-10.18,80-8.22,102.78,29.49,170.16-60.71s145.18,48.27,198.62,46.34,101.15-15.43,139.64,43.11S2299.77,1132.29,2231.66,1143.29Z"/><g class="cls-7"><path class="cls-8" d="M1824.46,1141.12l-2.33-3.9c1.71-1,175.71-102.79,525.41-92.63l-.13,4.54C1999,1039,1826.16,1140.09,1824.46,1141.12Z"/><path class="cls-8" d="M2048.84,1017.65c-43.89-43.88-50.27-77.22-50.52-78.62l4.47-.8c.06.33,6.49,33.45,49.27,76.21Z"/><path class="cls-8" d="M2054.26,1067c-11.75-23.49-8.8-56.3,8.53-94.87a303.59,303.59,0,0,1,29.79-51.43l3.63,2.72c-.65.87-64.9,87.54-37.89,141.56Z"/><path class="cls-8" d="M2146.59,1063.91c-5.24-4.88-8.05-8-8.17-8.16l3.4-3c.59.67,59.77,66.68,152.13,68.75l-.1,4.53C2219.43,1124.37,2166.12,1082.07,2146.59,1063.91Z"/><path class="cls-8" d="M2186.38,1171.09c-19.81-24.59-24.58-48.36-25.1-64-.56-17,3.57-28.06,3.75-28.52l4.24,1.61c-.16.42-15.62,43,20.65,88Z"/></g><g class="cls-3"><path class="cls-4" d="M2154.67,870.81c18.6.46,24,6.5,23.81,13.79s-5.85,13.07-24.46,12.62c-33.89-.83-49.94-14.43-49.94-14.43S2120.28,870,2154.67,870.81Z"/></g><g class="cls-3"><path class="cls-4" d="M2123.38,824.67c12.48-12.26,20.1-11.94,24.9-7s5,12.51-7.49,24.78c-22.74,22.34-42.44,24.28-42.44,24.28S2100.3,847.35,2123.38,824.67Z"/></g><g class="cls-3"><path class="cls-9" d="M1815.26,305.19s-22.15-42.61-78.22-37.27S1687.65,316,1661,312s-64.08,0-72.09,26.7-44,12-45.38,34.7,41.38,38.71,90.77,18.69,73.42,15.56,142.83,9.11,78-14.45,119.1-10.44,40.11-24.13,21.42-42.82S1823.27,331,1815.26,305.19Z"/></g><g class="cls-10"><path class="cls-9" d="M1516.4,221.91s-14.08-27.09-49.73-23.7-31.4,30.55-48.37,28-40.73,0-45.83,17-28,7.64-28.85,22.06,26.31,24.62,57.71,11.89,46.67,9.89,90.8,5.79,49.6-9.19,75.72-6.64,25.5-15.34,13.62-27.22S1521.5,238.32,1516.4,221.91Z"/></g><g class="cls-3"><path class="cls-9" d="M952.9,303.12S925.14,255.05,874.36,263s-1.12,29.57-67.7,40.17-81.25,33.18-50.78,51.23,80.12-32.72,134.28-7.9S1016.76,350.07,952.9,303.12Z"/></g><path class="cls-4" d="M702,483.71c-12.5,11.31-19.81,10.7-24.24,5.8S673.47,477.28,686,466c22.77-20.6,41.8-21.68,41.8-21.68S725.12,462.82,702,483.71Z"/><path class="cls-4" d="M774.62,870.51l-3.17.37c-.05-.49-6.15-49.62-37.06-117-28.53-62.2-84.62-153.12-189.89-233.08l1.93-2.54c105.85,80.4,162.24,171.86,190.92,234.42C768.44,820.49,774.56,870,774.62,870.51Z"/><path class="cls-4" d="M655.7,624.08l-3-1.14c41.37-108.21-19.55-216.56-20.17-217.64l2.77-1.59C636,404.81,697.62,514.43,655.7,624.08Z"/><path class="cls-4" d="M598.15,583.15c-31.72,6.58-59-4.33-59.31-4.46l1.21-3c.35.14,35.29,14.08,71.53.17l1.14,3A93.73,93.73,0,0,1,598.15,583.15Z"/><path class="cls-4" d="M538.8,503.78c19.62,11.49,22.75,19.52,19.42,25.22s-11.88,6.91-31.5-4.57c-35.74-20.91-47-41.34-47-41.34S502.55,482.57,538.8,503.78Z"/><path class="cls-4" d="M545.12,566.86c22.17,5,27.58,11.75,26.12,18.19s-9.24,10.17-31.41,5.14c-40.38-9.17-57.25-25.26-57.25-25.26S504.16,557.56,545.12,566.86Z"/><path class="cls-4" d="M619.78,526.77c7.1,15.29,4.35,22.09-1.64,24.87s-13,.49-20.06-14.8c-12.92-27.85-8.32-46.35-8.32-46.35S606.67,498.51,619.78,526.77Z"/><path class="cls-4" d="M639.28,389.69c9.68,20.57,7.71,29,1.73,31.78s-13.7-1-23.38-21.59c-17.62-37.47-15.31-60.67-15.31-60.67S621.4,351.68,639.28,389.69Z"/><path class="cls-4" d="M859.29,1139.27S739.53,625.7,601.4,663.43,757.9,989.79,788,1140.4Z"/><path class="cls-11" d="M777,1045.85S548.86,647.55,421.6,714.75,645.37,947.1,707.37,1065.19Z"/><path class="cls-8" d="M738.14,1057C696.8,974.68,623.93,900.12,570.08,852.08,511.69,800,462.49,767,462,766.68l2.05-3.06c.49.33,49.9,33.46,108.48,85.72,54.09,48.25,127.3,123.17,168.9,206Z"/><path class="cls-5" d="M286.12,1044.17c67.11,28.35,35.49,132,118.92,127.46,70.67-3.93,77.44-9.09,97.18,14.86a103,103,0,0,1,15.8,25.85c4.82,11.61,15.46,30.31,35.9,38,121,45.57,327-107.16,215.68-233.75-8-9.15-21.22-14.57-36-19.82-80-28.41-112.78,4.57-159.36-104.78s-161,13.23-215.3-2.1-99.89-41.09-154,9.33S219,1015.87,286.12,1044.17Z"/><path class="cls-6" d="M704.33,1143.68l3.36-3.41c-1.5-1.49-154.55-149.35-515.77-226.29l-1,4.69C550.79,995.32,702.83,1142.2,704.33,1143.68Z"/><path class="cls-6" d="M505,961c56-34,70.86-66.64,71.47-68L572.11,891c-.15.32-15,32.69-69.58,65.86Z"/><path class="cls-6" d="M487.15,1010.2c17.92-21.16,23.09-55.55,15-99.44a320.73,320.73,0,0,0-17.71-60.2L480,852.45c.46,1,44.7,106,3.5,154.66Z"/><path class="cls-6" d="M393.21,984c6.59-3.7,10.26-6.21,10.42-6.33l-2.74-3.92c-.77.53-78,53.46-173.21,32.5l-1,4.68C303.4,1027.82,368.64,997.75,393.21,984Z"/><path class="cls-6" d="M325.62,1084c26.46-20.27,37.29-43.46,41.72-59.35,4.82-17.29,3.36-29.67,3.29-30.19l-4.75.59c.05.48,5.27,48-43.18,85.15Z"/><path class="cls-12" d="M1843.06,1259.08,747,1246.5a42.83,42.83,0,0,1-42.35-42.83v-669a42.84,42.84,0,0,1,42.18-42.83l1082-16.57a42.85,42.85,0,0,1,43.49,42l14.14,698.15A42.84,42.84,0,0,1,1843.06,1259.08Z"/><rect class="cls-13" x="748.12" y="542.65" width="1081.83" height="583.75" rx="22.97"/><polygon class="cls-14" points="730.75 1162.14 420.12 1259.11 2160.01 1261.63 1885.3 1162.14 730.75 1162.14"/><path class="cls-15" d="M404.85,1273.42v17.67c0,7.9,6.82,14.31,15.24,14.31H2145.15c16,0,29.18-11.78,30-26.79l.11-2c.42-8.17-6.51-15-15.21-15l-1739.89-2.52C411.69,1259.09,404.85,1265.51,404.85,1273.42Z"/><circle class="cls-15" cx="1268.57" cy="513.78" r="12.57" transform="translate(477.08 1630.38) rotate(-76.72)"/><rect class="cls-16" x="802.16" y="594.02" width="703.17" height="481.41" rx="31.05"/><rect class="cls-16" x="1541.71" y="594.02" width="237.96" height="481.41" rx="18.06"/><rect class="cls-17" x="835.65" y="627.1" width="237.39" height="12.97"/><rect class="cls-18" x="835.65" y="731.02" width="257.45" height="12.97"/><rect class="cls-17" x="835.65" y="846.14" width="175.3" height="12.97"/><rect class="cls-18" x="1027.17" y="846.14" width="175.3" height="12.97"/><rect class="cls-12" x="871.02" y="970.78" width="257.45" height="12.97"/><rect class="cls-11" x="955.12" y="1002.34" width="257.45" height="12.97"/><rect class="cls-11" x="941.88" y="877.54" width="170.59" height="12.97"/><rect class="cls-11" x="1130.83" y="877.54" width="113.34" height="12.97"/><rect class="cls-11" x="1019.91" y="904.75" width="146.39" height="12.97"/><rect class="cls-11" x="946.88" y="766.86" width="124.58" height="12.97"/><rect class="cls-18" x="994.73" y="794.13" width="209.31" height="12.97"/><rect class="cls-11" x="1091.03" y="766.86" width="99.12" height="12.97"/><rect class="cls-12" x="1577.54" y="627.1" width="91.81" height="6.48"/><rect class="cls-11" x="1577.54" y="666" width="59.25" height="6.48"/><rect class="cls-11" x="1646.87" y="666" width="69.16" height="6.48"/><rect class="cls-11" x="1688.23" y="627.1" width="55.6" height="6.48"/><rect class="cls-11" x="1577.54" y="646.55" width="132.29" height="6.48"/><rect class="cls-17" x="1577.54" y="714.81" width="91.81" height="6.48"/><rect class="cls-11" x="1577.54" y="753.72" width="59.25" height="6.48"/><rect class="cls-11" x="1646.87" y="753.72" width="69.16" height="6.48"/><rect class="cls-11" x="1688.23" y="714.81" width="55.6" height="6.48"/><rect class="cls-11" x="1577.54" y="734.26" width="132.29" height="6.48"/><rect class="cls-18" x="1577.54" y="802.53" width="91.81" height="6.48"/><rect class="cls-11" x="1577.54" y="841.43" width="59.25" height="6.48"/><rect class="cls-11" x="1646.87" y="841.43" width="69.16" height="6.48"/><rect class="cls-11" x="1688.23" y="802.53" width="55.6" height="6.48"/><rect class="cls-11" x="1577.54" y="821.98" width="132.29" height="6.48"/><rect class="cls-17" x="1577.54" y="888.54" width="91.81" height="6.48"/><rect class="cls-11" x="1577.54" y="927.44" width="59.25" height="6.48"/><rect class="cls-11" x="1646.87" y="927.44" width="69.16" height="6.48"/><rect class="cls-11" x="1688.23" y="888.54" width="55.6" height="6.48"/><rect class="cls-11" x="1577.54" y="907.99" width="132.29" height="6.48"/><rect class="cls-11" x="1577.54" y="966.58" width="91.81" height="6.48"/><rect class="cls-11" x="1577.54" y="1005.48" width="59.25" height="6.48"/><rect class="cls-11" x="1646.87" y="1005.48" width="69.16" height="6.48"/><rect class="cls-11" x="1688.23" y="966.58" width="55.6" height="6.48"/><rect class="cls-11" x="1577.54" y="986.03" width="132.29" height="6.48"/><rect class="cls-17" x="1208.16" y="766.86" width="100.47" height="12.97"/><rect class="cls-1" x="931.82" y="667.92" width="257.45" height="12.97"/><rect class="cls-18" x="1212.57" y="667.92" width="177.69" height="12.97"/><rect class="cls-1" x="1281.14" y="627.1" width="148.38" height="12.97"/><path class="cls-15" d="M1121.39,610.1s-2.56,16.7-9.38,25.22c-4.49,5.61-16.88,16.73-8.07,20.43,7,3,20.59-10.21,25-13.49s11-9.48,9.56-14.76c-3-11-2-24.71-2-24.71Z"/><path class="cls-15" d="M1155.42,597.14s3.4,16.55,0,26.91c-2.26,6.82-10,21.55-.46,22,7.63.33,15.75-16.73,18.74-21.33s7-12.73,3.83-17.17c-6.66-9.2-10.5-22.46-10.5-22.46Z"/><path class="cls-17" d="M1150.64,608.84c-91.35-60.94-86.84-114.32-74.18-135.19,14.7-24.25,38-43.42,73.66-52a198,198,0,0,1,26.13-4.36,18.27,18.27,0,0,1,20.1,18.66l-.82,31.09h.07c-15.24-.32-61.48,4.33-73.6,29-2.51,5.12,59,77.34,56.68,90.3C1176.09,601,1159.57,614.8,1150.64,608.84Z"/><path class="cls-17" d="M1115.22,618A18.2,18.2,0,0,1,1097,598.71c1.37-23.32,5.7-63,19.28-93,7.7-17,19.94-32.46,36.39-46a203.31,203.31,0,0,1,44.11-27c28-12.9,48.26-11.1,48.26-11.1l15.33,22.6c-.2.05,4.3,22.81-28.11,43.11-17.89,11.2-53.84,18.05-68.63,47C1153,555,1149,582.44,1147.65,601.58a17.55,17.55,0,0,1-17.43,16.31Z"/><path class="cls-19" d="M1136.08,341.53s-18.84,29-25.59,72c-4.47,28.43,47.28-4.67,47.28-4.67l2.3-59.4Z"/><path class="cls-11" d="M1230.27,325.14s-14.35-24.53-47.43-17-46.56,41.32-48.93,122.46c0,0,19.86,35.16,110.24,28.3,10-.75,24.36-2.08,19.47-18.32C1254.52,410.4,1245.71,350.2,1230.27,325.14Z"/><path class="cls-11" d="M1266.66,332.31l-34,6.39s-59.5,17.6-76.16,17.74-23.55-12-23.55-12a88.16,88.16,0,0,1,41.59-33.57,82.89,82.89,0,0,1,8.33-2.69,61.28,61.28,0,0,1,14.79-2.48C1253.8,305,1266.66,332.31,1266.66,332.31Z"/><path class="cls-15" d="M1266.66,332.31c.74,2.68-6.39,7.16-15.93,10s-17.86,3-18.6.28,6.4-7.16,15.94-10S1265.93,329.62,1266.66,332.31Z"/><path class="cls-19" d="M1260.79,407.87c-14.54,22.78-43.33,37.31-73.58,36.36l3.22-24.27c23.46-4.28,41.44-19.54,44.79-32.41,4.21-16.17,2.77-31.93.76-43.76a3.06,3.06,0,0,1,1.15-3c3-2.3,10.77-7,24.66-7.24a2.68,2.68,0,0,1,2.65,2C1270.25,357.48,1273.76,387.55,1260.79,407.87Z"/><g class="cls-20"><path class="cls-21" d="M1245.48,415.34a4,4,0,0,1-1.54-.31c-2.54-1.09-3.44-4.76-2-8.18a7.64,7.64,0,0,1,4-4.19,4.2,4.2,0,0,1,3.28-.05c2.54,1.09,3.44,4.76,2,8.18h0a7.67,7.67,0,0,1-4,4.19A4.6,4.6,0,0,1,1245.48,415.34Zm2.17-11.92a3.58,3.58,0,0,0-1.32.27,6.56,6.56,0,0,0-3.35,3.59c-1.21,2.86-.58,5.87,1.4,6.72a3.12,3.12,0,0,0,2.43-.06,6.59,6.59,0,0,0,3.35-3.59h0c1.2-2.85.57-5.87-1.41-6.71A2.7,2.7,0,0,0,1247.65,403.42Z"/></g><path class="cls-19" d="M1190.43,420s-21.73-6.91-28.63-3.64-13.26,12.66-8.55,11.54a50.21,50.21,0,0,0,10.34-4.2s-11.71,7.16-8.85,9.18,13-4.32,13-4.32-13.26,9.64-9.94,10.66,13.34-6.37,13.34-6.37-12,9.46-8.09,10.57,9.84-7.89,12.7-5.87,10.17,11.25,16.73,4Z"/><path class="cls-22" d="M1163.77,423.87l-.36-.43c.13-.11,3.16-2.63,5.58-1.94l-.15.54C1166.71,421.44,1163.8,423.85,1163.77,423.87Z"/><path class="cls-22" d="M1167.91,428.73l-.37-.42a9.85,9.85,0,0,1,6.57-2.32l0,.56C1170.76,426.28,1167.94,428.71,1167.91,428.73Z"/><path class="cls-22" d="M1171.31,433l-.36-.43c.15-.13,3.73-3.12,6.25-2.16l-.2.52C1174.8,430.13,1171.34,433,1171.31,433Z"/><path class="cls-15" d="M1163.74,453.76H1094a3.4,3.4,0,0,1-3.22-2.3l-14.49-43.29a3.37,3.37,0,0,1,3.22-4.43h67.07a7.1,7.1,0,0,1,6.74,4.82L1167,449.33A3.37,3.37,0,0,1,1163.74,453.76Z"/><path class="cls-15" d="M1159.36,453.76h-69.75a3.38,3.38,0,0,1-3.21-2.3l-14.5-43.29a3.37,3.37,0,0,1,3.22-4.43h67.08a7.09,7.09,0,0,1,6.73,4.82l13.65,40.77A3.37,3.37,0,0,1,1159.36,453.76Z"/><path class="cls-1" d="M1110.49,427.34c0-1.65,1.9-2.32,3.55-2.32s4.36,1.81,4.34,4.11c0,2.48-2,2.81-3.61,2.81S1110.49,429.43,1110.49,427.34Z"/><path class="cls-15" d="M1185,447.65h-95.43v6.11H1187a2.06,2.06,0,0,0,2.06-2.06h0A4,4,0,0,0,1185,447.65Z"/><path class="cls-16" d="M1154.41,425.63c0-.13-3.46-13-5.68-16.95s-4.87-4.71-4.9-4.72l.12-.44c.12,0,2.9.84,5.18,4.93s5.57,16.53,5.71,17.06Z"/><path class="cls-16" d="M1164.71,447.87c-2.58,0-3.23-1.14-3.25-1.19L1156,430.41l.43-.14,5.43,16.23h0s.59.92,2.84.92Z"/><path class="cls-23" d="M1100.42,566.55l-.56,0a257.12,257.12,0,0,1,7.92-44.67c6-21.8,17.53-50.46,38.78-63.18l.29.49c-21.09,12.62-32.59,41.14-38.52,62.84A256.37,256.37,0,0,0,1100.42,566.55Z"/><path class="cls-23" d="M1147,606.18h-.57a165.41,165.41,0,0,1,11-57.78l.52.22A164.62,164.62,0,0,0,1147,606.18Z"/><path class="cls-15" d="M1169,309.77s7.73-4,8.57-8.57,4-3.5,5.57-4.81-4.36-13-4.36-13l-17.22-4.51,3.74,21.19Z"/><path class="cls-19" d="M1203.74,305.71a10,10,0,0,1-8.63-5.14l-5.41-9.88-1.57-2.87L1178.89,271l3,18.1,1.82,10.86.52,3.1a5,5,0,0,1-3.6,5.63l-.05,0c-1.14,2.31-2.58,6.94,3.15,8.19,6.73,1.46,16.81-4.69,20-11.14Z"/><path class="cls-24" d="M1189.69,290.38c0,.1,0,.2,0,.31.12,5.91-5.9,9.25-5.9,9.25l0,0-1.82-10.86c1.85-.89,4.52-1.87,6.2-1.23A2.57,2.57,0,0,1,1189.69,290.38Z"/><ellipse class="cls-19" cx="1178.34" cy="273.94" rx="17.2" ry="21.22" transform="translate(-20.58 112.3) rotate(-5.41)"/><path class="cls-9" d="M1170.41,288.48a37.13,37.13,0,0,0,11.52-3s1,5.72-5.27,6.7C1173,292.74,1170.41,288.48,1170.41,288.48Z"/><path class="cls-25" d="M1176.7,274.3a.4.4,0,0,1-.28-.2.39.39,0,0,1,.17-.53,4.24,4.24,0,0,1,5.15.65.39.39,0,0,1,0,.55.45.45,0,0,1-.56,0,6.61,6.61,0,0,0-4.27-.54A.37.37,0,0,1,1176.7,274.3Z"/><path class="cls-25" d="M1181,278c.11.92-.34,1.74-1,1.83s-1.31-.6-1.43-1.53a1.51,1.51,0,0,1,1-1.83C1180.24,276.41,1180.88,277.09,1181,278Z"/><path class="cls-25" d="M1170,279.8a1.52,1.52,0,0,1-.88,1.89c-.67.13-1.35-.51-1.53-1.43s.22-1.76.89-1.89S1169.81,278.88,1170,279.8Z"/><path class="cls-15" d="M1185.37,259.63a30.15,30.15,0,0,0-20.13,30.48c0,.78.12,1.59.19,2.41,0,0,9,1.13,10.34,9.77.41,2.71-7,8.09-7.59,7.9-4.3-1.44-16-10.46-15.46-30.61s6.89-35.52,25.13-37.87,17,10.09,17,10.09A17.18,17.18,0,0,1,1185.37,259.63Z"/><path class="cls-15" d="M1182.8,259.91s.33.17.87.51c2.08,1.32,7.28,5.17,8.73,11.5,1.83,8-5.46,13.75-2.74,19.8s7.71-1.5,12.38-.87,7.83-1.81,7.27-11-4.72-30.32-15.55-29.29Z"/><path class="cls-19" d="M1195.44,275.54c-1.76,2-4.46,2.48-6,1s-1.4-4.34.37-6.38,4.45-2.48,6-1S1197.21,273.5,1195.44,275.54Z"/><path class="cls-9" d="M1161.82,300.69a.22.22,0,0,1-.21-.16c-2.51-13.09,1-26.36,5.66-33.7,3.77-6,8-8.62,10.87-9.78a12.94,12.94,0,0,1,5.44-1.1.21.21,0,0,1,.19.22.22.22,0,0,1-.22.19c-.09,0-8.84-.55-15.93,10.7-4.59,7.26-8.09,20.41-5.6,33.39a.2.2,0,0,1-.17.24Z"/><path class="cls-9" d="M1201.5,283.78h-.07a.22.22,0,0,1-.12-.27c3.25-8.89-.21-23.43-4-27.5s-8.67-1.27-8.88-1.15a.2.2,0,0,1-.28-.08.2.2,0,0,1,.08-.28s5.44-3,9.39,1.23,7.39,18.9,4.1,27.92A.2.2,0,0,1,1201.5,283.78Z"/><path class="cls-9" d="M1159.12,284.51a.22.22,0,0,1-.21-.2,85.78,85.78,0,0,1,.73-13.15c1.29-9.21,4-15,8-17.19a18.88,18.88,0,0,1,12.42-2.18,16,16,0,0,1,5.18,1.77.21.21,0,0,1-.21.36,18,18,0,0,0-17.19.42c-9.34,5.09-8.53,29.71-8.52,30a.21.21,0,0,1-.2.22Z"/><path class="cls-15" d="M1971.08,1221.66s-.25,10.12-7.1,13-26.69,5.43-19.28,11.94c4.26,3.73,24.31,1.32,30,1.32s11,2.46,15.18-1.32c4.63-4.17,0-24.92,0-24.92s-4.88,2.54-9.28,2.43C1974.24,1223.93,1971.08,1221.66,1971.08,1221.66Z"/><path class="cls-15" d="M2049.74,1221.66s-.25,10.12-7.1,13-26.7,5.43-19.28,11.93c4.25,3.74,24.3,1.33,30,1.33s11,2.46,15.18-1.33c4.63-4.17,0-24.91,0-24.91s-4.89,2.54-9.28,2.43C2052.9,1223.92,2049.74,1221.66,2049.74,1221.66Z"/><path class="cls-16" d="M1920.18,944.18s-1.27,42.37,12.25,123.65c9.77,58.68,21.29,117.8,27,146.15a22.11,22.11,0,0,0,20.65,18l5.44.22c10.92.43,19.79-9,19-20.11l-13.72-191.78-3.38-63.12Z"/><path class="cls-15" d="M2043.88,981.47c-.62,5.15-29.78,4.53-65.48,0s-63.49-12.25-62.87-17.41,29.42-5.78,65.12-1.27S2044.5,976.31,2043.88,981.47Z"/><path class="cls-16" d="M1961.17,974.44l76.21,244.85a24.59,24.59,0,0,0,22.93,17.45l4.58.07c10.82.19,19.09-9.81,17.12-20.7l-41.7-230.06a7.56,7.56,0,0,0-5.26-5.67C2020.76,976.26,1959.76,964.32,1961.17,974.44Z"/><path class="cls-26" d="M2032,840.5s-10.14-28.53-46.27-27.23-63.4,48.77-70.16,150.8c0,0,59.16-13,128.45,17.29C2044,981.36,2047.83,882.09,2032,840.5Z"/><path class="cls-26" d="M2057.33,838.78l-25.59,16.39s-65.79,6.58-83.25,3.41-20.19-16-20.19-16,16.62-22.79,48.23-28.45a88.46,88.46,0,0,1,9.16-.85,89.64,89.64,0,0,1,16,.35C2032.91,817,2057.33,838.78,2057.33,838.78Z"/><path class="cls-23" d="M1995.23,1083.88l-16.39-49.83a47.23,47.23,0,0,0-21.35-26.33l.64-1.12a48.59,48.59,0,0,1,21.93,27.05l16.39,49.83Z"/><path class="cls-17" d="M1960.92,806.91c-.2,0-4.86-1.18-6.25-4.52-.73-1.76-.39-3.79,1-6,.62-1,1.19-1.92,1.71-2.75,3.62-5.76,4.83-7.71,3.89-12.22l.41-.09c1,4.68-.36,6.82-4,12.54-.52.83-1.08,1.73-1.7,2.74-1.31,2.13-1.63,4-1,5.66,1.31,3.14,5.91,4.26,6,4.27Z"/><path class="cls-17" d="M1961.46,781.34a21.29,21.29,0,0,1-3.2,14.82c-4.8,7.59.43,13.13,6.93,10.21s9,5.38,17.3.79S1961.46,781.34,1961.46,781.34Z"/><path class="cls-19" d="M1999.88,813.37a10,10,0,0,1-8.14-6l-4.47-10.4-1.3-3-7.64-17.74,1.32,18.38.8,11,.23,3.15a5,5,0,0,1-4.15,5.29h0c-1.36,2.21-3.24,6.7,2.37,8.49,6.59,2.1,17.26-3.09,21.08-9.24Z"/><path class="cls-15" d="M1987.28,796.71c0,.1,0,.21,0,.31-.44,5.93-6.78,8.69-6.78,8.69l0,0-.8-11c1.94-.71,4.7-1.44,6.32-.64A2.59,2.59,0,0,1,1987.28,796.71Z"/><ellipse class="cls-19" cx="1977.49" cy="779.2" rx="17.28" ry="21.31"/><path class="cls-19" d="M1992.46,782.41c-2,1.87-4.69,2.06-6.11.43s-1-4.47,1-6.34,4.7-2.06,6.11-.43S1994.42,780.54,1992.46,782.41Z"/><path class="cls-27" d="M1968.19,793a37.3,37.3,0,0,0,11.8-1.94s.49,5.82-5.9,6.21C1970.37,797.49,1968.19,793,1968.19,793Z"/><path class="cls-9" d="M1968.19,793s1.43,1.19,4.76,1.17,7-3.11,7-3.11S1972.88,793,1968.19,793Z"/><path class="cls-25" d="M1975.82,779.4a.39.39,0,0,1,0-.74,4.24,4.24,0,0,1,5.08,1.13.4.4,0,0,1,0,.56.44.44,0,0,1-.56,0,6.67,6.67,0,0,0-4.22-1A.43.43,0,0,1,1975.82,779.4Z"/><path class="cls-25" d="M1978.93,783.72c0,.94-.5,1.72-1.18,1.74s-1.25-.72-1.28-1.66.5-1.71,1.18-1.74S1978.9,782.78,1978.93,783.72Z"/><path class="cls-25" d="M1961.79,781.45a.38.38,0,0,1-.33-.11.4.4,0,0,1,0-.56,4.27,4.27,0,0,1,5.14-.89.4.4,0,0,1,.19.52.42.42,0,0,1-.51.2,6.8,6.8,0,0,0-4.27.73A.34.34,0,0,1,1961.79,781.45Z"/><path class="cls-25" d="M1966.31,784.26a1.51,1.51,0,0,1-.42,2c-.62.28-1.44-.18-1.82-1a1.51,1.51,0,0,1,.42-2C1965.11,782.94,1965.93,783.4,1966.31,784.26Z"/><path class="cls-17" d="M1970.16,761.75s.37,7.39,9.6,8.65,15.61,5.17,14.37,11.82S1978,802.68,1988.94,808s8.62-4.63,20.48-2.32,14-13.52,5.83-22.72-4.86-33.51-35.49-32.43-19.4,25.51-19.4,25.51S1970.17,769.91,1970.16,761.75Z"/><path class="cls-9" d="M1992.09,809.4c-2.3-.94-3.72-2.32-4.21-4.12-1.34-5,4.44-12.46,9.54-19.07,1.34-1.74,2.61-3.38,3.73-5,3.12-4.35,3.39-9.34.72-13.34-2.93-4.38-8.5-6.23-14.55-4.83s-10.18.13-12.59-1.17a11.15,11.15,0,0,1-3.85-3.22l.2-.14c.05.07,4.81,6.92,16.18,4.28,6.15-1.42,11.83.47,14.81,4.95,2.69,4,2.42,9.24-.72,13.62-1.12,1.57-2.39,3.21-3.74,5-5.06,6.56-10.8,14-9.49,18.84.48,1.75,1.81,3,4.07,3.95Z"/><path class="cls-14" d="M1961.15,795.09c-2.59-1-4.88-3.83-6.1-7.67-2-6.27-.59-13.23,3.12-15.53a5,5,0,0,1,4.49-.45c2.6,1,4.88,3.82,6.1,7.66h0c2,6.25.6,13.23-3.12,15.54a4.94,4.94,0,0,1-2.64.78A5.52,5.52,0,0,1,1961.15,795.09Zm6.88-15.75c-1.15-3.62-3.26-6.3-5.63-7.18a4.31,4.31,0,0,0-3.82.37c-3.44,2.13-4.69,8.71-2.79,14.66,1.15,3.61,3.25,6.3,5.63,7.17a4.29,4.29,0,0,0,3.81-.36c3.44-2.15,4.69-8.72,2.8-14.66Z"/><g class="cls-20"><path class="cls-9" d="M1988.75,775c1.39,6.09-.83,12.62-5,14.6s-8.58-1.36-10-7.45.83-12.62,5-14.59S1987.36,769,1988.75,775Z"/></g><g class="cls-20"><path class="cls-9" d="M1968.93,779.61c1.39,6.11-.46,12.74-4.14,14.81s-7.77-1.22-9.16-7.34.46-12.74,4.13-14.8S1967.54,773.5,1968.93,779.61Z"/></g><path class="cls-14" d="M1978.05,789.71c-2.65-1.29-4.68-4.2-5.56-8-1.51-6.5,1-13.52,5.49-15.66a6.36,6.36,0,0,1,5.61.05c2.65,1.29,4.67,4.2,5.54,8h0c1.52,6.51-.94,13.53-5.48,15.65a6.24,6.24,0,0,1-2.76.65A6.68,6.68,0,0,1,1978.05,789.71Zm.25-23c-4.22,2-6.49,8.63-5.06,14.79.81,3.51,2.74,6.31,5.15,7.48a5.68,5.68,0,0,0,4.93,0c4.23-2,6.5-8.62,5.07-14.79h0c-.81-3.5-2.73-6.28-5.14-7.46a5.72,5.72,0,0,0-2.52-.6A5.88,5.88,0,0,0,1978.3,766.75Z"/><path class="cls-14" d="M1968.11,781.89a.73.73,0,0,0,.46-.17h0a6.48,6.48,0,0,1,5.15-.91.74.74,0,0,0,.84-.57.69.69,0,0,0-.56-.83,7.76,7.76,0,0,0-6.35,1.2.72.72,0,0,0-.09,1A.7.7,0,0,0,1968.11,781.89Z"/><path class="cls-15" d="M2057.69,839.35c.89,2.58-5.8,7.4-15,10.77s-17.27,4-18.16,1.45,5.8-7.4,15-10.78S2056.81,836.77,2057.69,839.35Z"/><path class="cls-19" d="M1987.07,922.54l7.54-12.75c0-2.55-4.23-7.27-1.81-6.47,9.44,3.13,28.33-3.36,33.3-10.39,6.9-9.76,6.18-24.93,4.25-35.44-1-5.38.79-9,7.29-12.43a44.44,44.44,0,0,1,12.49-4.25c2.77-.47,5.51.64,6.22,3.35a113.54,113.54,0,0,1,3.25,18.6c1.64,18.44-1.92,34.48-10.29,46.39-10.26,14.62-29.41,24-59.51,21.34C1987.06,930.25,1987.11,925.3,1987.07,922.54Z"/><g class="cls-7"><path class="cls-21" d="M2042.59,904.27a3.78,3.78,0,0,1-2.39-.79c-2-1.65-1.81-5.32.5-8.18s5.84-3.87,7.88-2.23a4.18,4.18,0,0,1,1.39,3.75,8.31,8.31,0,0,1-1.88,4.43h0A7.5,7.5,0,0,1,2042.59,904.27Zm3.61-10.74a6.33,6.33,0,0,0-4.53,2.55c-1.84,2.29-2.15,5.23-.68,6.42s4.28.25,6.12-2h0a7,7,0,0,0,1.61-3.74,3,3,0,0,0-.92-2.67A2.52,2.52,0,0,0,2046.2,893.53Z"/></g><path class="cls-16" d="M2015.17,975.88s-71.25-13.61-94.35-7.19l11.08,16.41,41.18,2.34Z"/><path class="cls-14" d="M1977.94,944.18h-60.72a5.56,5.56,0,0,1-5.44-4.37l-18.11-81.33a5.35,5.35,0,0,1,5.23-6.51h57.94a6.3,6.3,0,0,1,6.16,4.93l18.45,82.91A3.59,3.59,0,0,1,1977.94,944.18Z"/><path class="cls-19" d="M1995,905.46s-15.51-15.83-24-16-19.45,6.1-14.2,7.3a55.82,55.82,0,0,0,12.37.9s-15.2,1.38-13.33,4.79,15.07,2.09,15.07,2.09-18,3.08-15.16,5.74,16.43.22,16.43.22-16.59,3.53-13.26,6.54,13.69-3,15.55.41,10.42,16.35,20.54,12.33Z"/><path class="cls-22" d="M1975.19,898.66c-1.83-1.65-5.91-.68-6-.67l-.15-.61c.18,0,4.45-1.06,6.52.82Z"/><path class="cls-22" d="M1978.18,905.73c-3.17-1.89-7.16-.87-7.2-.86l-.16-.6a11,11,0,0,1,7.68.92Z"/><path class="cls-22" d="M1978.94,911.58c-1.8-1.92-6.64-.76-6.69-.75l-.15-.61c.21-.05,5.26-1.26,7.29.93Z"/><path class="cls-19" d="M1894.05,893.36s-.84,7.35,5.87,8.07c8.56.92,27.76-8.35,5.73-8.8-.55,0,14.06-1,12.32-4.57s-14.37-1.92-14.37-1.92,15.36-2.34,12.63-5.15-12.67-2.44-12.67-2.44,13-1.35,9.75-4.54-11.7.09-15.6.65c-3.69.54-4.53,3.08-3.76,6.6,0,0-1.27,4-.19,6.12.42.83-.29,1.82-.27,2.48A23.27,23.27,0,0,0,1894.05,893.36Z"/><path class="cls-17" d="M1940.48,854.26s-2.28-5.22-2.94-5.76-28-.36-27.85.9,1.26,5,3.78,5.77S1941.52,856.56,1940.48,854.26Z"/><path class="cls-15" d="M1939.56,1236.47H664a7,7,0,0,1-7-5.86,7.05,7.05,0,0,1,4.45-8.08l123.94-47.79a37.67,37.67,0,0,1,13.64-2.54H1818.65a32.63,32.63,0,0,1,13.24,2.79l110.29,48.61a6.61,6.61,0,0,1,3.83,7.56A6.51,6.51,0,0,1,1939.56,1236.47ZM799.07,1173.32a36.62,36.62,0,0,0-13.24,2.47l-123.94,47.79a6,6,0,0,0-3.75,6.82,5.81,5.81,0,0,0,5.86,4.94H1939.56a5.35,5.35,0,0,0,5.35-4.41,5.44,5.44,0,0,0-3.18-6.3L1831.44,1176a31.5,31.5,0,0,0-12.79-2.7Z"/><path class="cls-19" d="M1336.41,819.88l-1.4.66a2.66,2.66,0,0,1-3.52-1.25L1325,805.72a2.63,2.63,0,0,1,1.25-3.5l1.4-.67a2.65,2.65,0,0,1,3.51,1.25l6.46,13.57A2.64,2.64,0,0,1,1336.41,819.88Z"/><path class="cls-19" d="M1341.78,816l-1.49.71a2.59,2.59,0,0,1-3.44-1.23L1330,801.07a2.58,2.58,0,0,1,1.23-3.44l1.49-.71a2.59,2.59,0,0,1,3.45,1.23l6.86,14.43A2.59,2.59,0,0,1,1341.78,816Z"/><path class="cls-19" d="M1349.37,828.46l-1-.23a3.41,3.41,0,0,1-2.54-4.09L1350,806.4c.43-1.82,2.84-4.59,4.67-4.16,3,.72,3.37,4.11,2.94,5.93l-4.14,17.75A3.42,3.42,0,0,1,1349.37,828.46Z"/><path class="cls-19" d="M1347.77,813.74l-.55.26a3.23,3.23,0,0,1-4.29-1.52L1333.21,792c-.76-1.6-1.86-5.36,1.11-6.44,2.18-.78,4.31,3,5.53,5.45,2.45,4.89,9.45,18.41,9.45,18.41A3.22,3.22,0,0,1,1347.77,813.74Z"/><path class="cls-19" d="M1336.55,834.2s-13.92-12.22-14.71-23.61c-.27-4,17.33-12.26,20.79-9.5s10.88,19.44,10.88,19.44Z"/><path class="cls-19" d="M1330.51,821.94l-1.45.69c-1.29.61-.22,3.13-1.11,2a43.38,43.38,0,0,1-7.88-14.85c-.61-1.29,0-3.64,1.25-4.25l1.29-.38c1.29-.61,3,.43,3.62,1.72l5.52,11.6A2.61,2.61,0,0,1,1330.51,821.94Z"/><path class="cls-15" d="M1434.9,1200.8s-.5,9.44-7,11.93-25.1,4.4-18.33,10.66c3.88,3.59,22.69,1.85,28,2s10.2,2.58,14.23-.85c4.44-3.78.63-23.26.63-23.26s-4.63,2.25-8.74,2C1437.79,1203,1434.9,1200.8,1434.9,1200.8Z"/><path class="cls-26" d="M1388.43,962.79c1.24,19.61,3.58,45.05,7.9,76.16,8.25,59.31,18.26,119.13,23.19,147.81a22.28,22.28,0,0,0,20.34,18.63l5.47.37c11,.74,19.36-3.33,19.36-20.79l-.54-159.39-8.55-63.66S1386.4,930.63,1388.43,962.79Z"/><path class="cls-15" d="M1495.56,1202.43s-.5,9.44-7,11.93-25.1,4.4-18.33,10.66c3.88,3.59,22.7,1.85,28,2s10.2,2.58,14.23-.85c4.44-3.78.63-23.26.63-23.26s-4.63,2.25-8.74,2C1498.46,1204.62,1495.56,1202.43,1495.56,1202.43Z"/><path class="cls-26" d="M1448,915.82s-2.43,42.6,9,124.76c8.25,59.32,18.26,119.13,23.19,147.81a22.3,22.3,0,0,0,20.34,18.64l5.47.36a18.7,18.7,0,0,0,19.7-19.72l-8.61-193.36-1.69-63.62Z"/><path class="cls-15" d="M1464.36,1093.67c0-2.92-.8-71.72,2.73-84.29s19.42-23.24,20.1-23.68l.45.69c-.16.1-16.28,10.86-19.75,23.22s-2.71,83.34-2.71,84.05Z"/><path class="cls-19" d="M1459.92,784.85l-4.27-12.75-1.24-3.71-7.29-21.82-1,21.7-.57,13-.18,4.13c-.13,2.79-2,3.38-4.21,5.82-.91,1-6.72,7-.12,9.66,8.21,3.36,23.56-1.73,29.4-8.4C1470.43,792.5,1461.29,789,1459.92,784.85Z"/><ellipse class="cls-19" cx="1448.23" cy="754.71" rx="23.43" ry="20.88" transform="translate(399.94 2006.93) rotate(-77.59)"/><path class="cls-15" d="M1436.45,746.57c-12,.41-17.76-6-17.9-11.91-.18-7.59,5-14.32,11-11.5s3.43-4.1,9.21-4.83c10.8-1.38,12.82,5.74,21.66,6.09,11.65.45,24.94,18.45,15.17,31.59C1475.58,756,1445.9,746.24,1436.45,746.57Z"/><path class="cls-15" d="M1425.8,738.91s12.78,11.4,11.1,17.82-1.26,8.93,6.2,12.36.88,9,10.82,9.38,22.14-10.5,22.13-28.41a25.84,25.84,0,0,0-6.19-16.52Z"/><path class="cls-19" d="M1430.44,756.45a4.54,4.54,0,0,1,6-1.28,3.82,3.82,0,0,1,.7,5.62,4.52,4.52,0,0,1-5.94,1.28A3.82,3.82,0,0,1,1430.44,756.45Z"/><path class="cls-15" d="M1480.38,761a.29.29,0,0,1-.29-.23,6.85,6.85,0,0,0-3.09-3.81.29.29,0,0,1-.12-.4.3.3,0,0,1,.4-.12,7.31,7.31,0,0,1,3.39,4.19.3.3,0,0,1-.22.36Z"/><path class="cls-15" d="M1477.14,755.56a.3.3,0,0,1,0-.59s3.27-.22,3.73-2.53a.3.3,0,0,1,.35-.24.3.3,0,0,1,.23.35c-.55,2.77-4.13,3-4.28,3Z"/><path class="cls-15" d="M1431.35,722.72a2.47,2.47,0,0,1-.64-.09,8.89,8.89,0,0,1-2.45-1.21,5,5,0,0,0-5-.85.29.29,0,0,1-.37-.2.29.29,0,0,1,.2-.37,5.66,5.66,0,0,1,5.48.92,8,8,0,0,0,2.28,1.13,1.47,1.47,0,0,0,1.3-.18c1.31-.9,1.61-3.72,1.62-3.75a.28.28,0,0,1,.32-.26.29.29,0,0,1,.26.32c0,.13-.34,3.13-1.87,4.18A2,2,0,0,1,1431.35,722.72Z"/><path class="cls-15" d="M1459.49,723.48a12.85,12.85,0,0,1-7.66-3,.31.31,0,0,1,0-.42.3.3,0,0,1,.42,0s4,3.42,8.55,2.74a.28.28,0,0,1,.33.25.28.28,0,0,1-.25.33A9,9,0,0,1,1459.49,723.48Z"/><path class="cls-15" d="M1433.64,762.9a2.74,2.74,0,0,1-.82-.1.14.14,0,0,1-.09-.18.15.15,0,0,1,.18-.09c.11,0,2.7.8,4.54-2.59a.15.15,0,0,1,.19-.06.15.15,0,0,1,.06.2C1436.39,762.5,1434.65,762.9,1433.64,762.9Z"/><path class="cls-15" d="M1388.43,962.79s86.77-4.73,128,5.18l.61-11.72-57.74-17.06-46.61,1.14-14.32,3L1388.21,959Z"/><path class="cls-17" d="M1508.68,820.08s-7.64-32.78-54.36-32.78c-81.41,0-58.57,66.28-66.11,171.66,0,0,52.49-11.36,128.44,3.75,0,0,7.4-57.06-2.16-105.31C1512,844.67,1512.43,831.15,1508.68,820.08Z"/><path class="cls-17" d="M1445,787.3s-26.12.38-45.54,18.68-44.43,43.49-49.74,58c-6.53,17.85,5.5,35.77,20.77,36.15s29-10.67,29-10.67Z"/><path class="cls-17" d="M1560.61,883.73c-7.64-56.41-72-88.27-72-88.27l-13.73,70.76,26.81,8.49a21.35,21.35,0,0,1,11.07,32.65c-10.67,15-16.91,35.22-5.89,31.51C1525.71,932.52,1564.43,908.51,1560.61,883.73Z"/><path class="cls-15" d="M1519.07,937l-.57,0c2.26-41.34-5.07-83.65-5.14-84.07l.56-.1C1514,853.23,1521.34,895.61,1519.07,937Z"/><path class="cls-15" d="M1390.36,895.39l-.3-.49c15.35-9,35.32-32.84,35.52-33.08l.44.37C1425.82,862.43,1405.79,886.31,1390.36,895.39Z"/><path class="cls-17" d="M1383.44,837.62s-19.73-20.54-26.63-21.93-46.66,9.54-3,75.65Z"/><path class="cls-19" d="M827.44,1036.81c2.56,4.56,28.27,44.38,22.89,83.33l-28-10.12-12.79-52.5Z"/><path class="cls-8" d="M715.71,1020.49s17.19-30.84,59-22.31,64.68,68.42,53.33,187.06c0,0-66.48-26.43-152.92-5.13C675.16,1180.11,689.39,1065.22,715.71,1020.49Z"/><path class="cls-8" d="M683.79,1008l29.42,29.36s75.41,20.38,96.35,20.13S838.75,1042,838.75,1042s-17.68-28-53.45-40.66a103.61,103.61,0,0,0-29.23-5.84C719,993.27,683.79,1008,683.79,1008Z"/><path class="cls-15" d="M683.79,1008c-4.7,5.11,2.55,10.69,10.67,18.8s16.52,12.84,18.74,10.56-2.54-10.69-10.67-18.8S686,1005.68,683.79,1008Z"/><path class="cls-19" d="M709.29,1037.51s.44-5.86-6.93-13.35a44.75,44.75,0,0,0-13.83-9.09,4.3,4.3,0,0,0-5.72,2.41l-2.35,6.08,11,7.07Z"/><path class="cls-17" d="M761.27,1146.28s-90.75-49.18-123.27,4.47c-24.08,39.71,12.11,76.69,146.36,72.94,0,0,13.27-6.22,10-38.45C793.12,1172.46,761.27,1146.28,761.27,1146.28Z"/><path class="cls-17" d="M761.27,1146.28s120.86-49.51,144.78-18.56c27.48,35.57,1.12,96-126.27,74.38l-15.53-16.86Z"/><path class="cls-23" d="M784.51,1223.89l-.29-.41c14.09-10.06,10.3-35.88,9.95-38.06l-91.6-33.34.17-.47,91.89,33.44,0,.14C794.7,1185.47,799.42,1213.26,784.51,1223.89Z"/><path class="cls-15" d="M795.17,1194.1s22.28.91,32.74,6,4.88,17.66-16.37,17.32-19.63-3.49-19.63-3.49S795.94,1203,795.17,1194.1Z"/><path class="cls-19" d="M766.66,1148.64c7.38,0,13.44-1.87,18.35-5.57,9.28-7,11-18.16,9.66-25.59l-8.88-5.16c-.44-2.44-17.57,6.61-17.55,6.6s-8.17,2.37-36.25-12c-19.55-10-29.4-24.16-30.12-43.34-.54-14.45,5.9-22.57,7.42-26.09.21-.47-9.44-10.14-9.17-11.12l-7.23-3.68c.23-.83-6.95-3.66-6.85-3.9l-5.58,4.75a93,93,0,0,0-7.86,41.16c.78,20.94,9.43,49.85,46.16,68.62C738.79,1143.57,754.51,1148.64,766.66,1148.64Z"/><path class="cls-14" d="M772.62,1149.81h78.31a3.82,3.82,0,0,0,3.62-2.58l16.27-48.61a3.78,3.78,0,0,0-3.61-5H791.9a8,8,0,0,0-7.57,5.42L769,1144.84A3.78,3.78,0,0,0,772.62,1149.81Z"/><path class="cls-14" d="M777.53,1149.81h78.32a3.79,3.79,0,0,0,3.61-2.58l16.28-48.61a3.79,3.79,0,0,0-3.61-5H796.81a8,8,0,0,0-7.56,5.42l-15.33,45.77A3.78,3.78,0,0,0,777.53,1149.81Z"/><path class="cls-1" d="M832.41,1120.14c0-1.84-2.13-2.6-4-2.6s-4.89,2-4.87,4.61c0,2.79,2.2,3.16,4.06,3.16S832.41,1122.49,832.41,1120.14Z"/><path class="cls-14" d="M748.74,1143H855.89v6.86H746.5a2.3,2.3,0,0,1-2.31-2.31h0A4.55,4.55,0,0,1,748.74,1143Z"/><path class="cls-15" d="M782.86,1118.55l-.1,0a.39.39,0,0,1-.28-.48c.16-.59,3.9-14.63,6.43-19.18s5.76-5.56,5.89-5.6a.4.4,0,0,1,.49.27.41.41,0,0,1-.28.49s-3,.89-5.42,5.23-6.31,18.85-6.35,19A.41.41,0,0,1,782.86,1118.55Z"/><path class="cls-15" d="M771.53,1143.34a.4.4,0,0,1,0-.79c2.46,0,3.08-1,3.09-1l6.07-18.16a.39.39,0,0,1,.5-.25.41.41,0,0,1,.25.5l-6.11,18.23C775.27,1142,774.51,1143.34,771.53,1143.34Z"/><path class="cls-21" d="M696.26,1106.5a3.45,3.45,0,0,1-.88-.12c-1.68-.45-3.54-2.14-4.83-4.41-2-3.47-2-7.06-.12-8.18a2.71,2.71,0,0,1,2.13-.2c1.69.45,3.54,2.14,4.83,4.4,2,3.47,2,7.07.13,8.18A2.47,2.47,0,0,1,696.26,1106.5Zm-4.57-12a1.55,1.55,0,0,0-.75.19c-1.38.81-1.15,3.92.49,6.8,1.15,2,2.8,3.55,4.22,3.93a1.75,1.75,0,0,0,1.35-.1c1.38-.81,1.16-3.92-.49-6.8-1.15-2-2.8-3.55-4.21-3.93A2.31,2.31,0,0,0,691.69,1094.48Z"/><path class="cls-19" d="M755.42,995.4c5.14-.15,9.05-.68,12-4.16l9.16-10.78,2.66-3.13,15.68-18.45-8.23,21.57-5,12.94-1.56,4.1c-1.06,2.78.34,4.08,1.33,7.33.4,1.32,3.1,9.43-3.94,9.48-8.77.07-19.86-10.13-22.3-18.93A.7.7,0,0,0,755.42,995.4Z"/><path class="cls-15" d="M774,973.54S756.78,957,766.73,943s12.45,22.47,12.45,22.47l-2.78,8.43Z"/><path class="cls-15" d="M776.67,980.09c0,.12-.06.25-.08.37-1.61,7.28,5.1,13,5.1,13l.06,0,5-12.94c-2.1-1.57-5.2-3.48-7.45-3.12C778.08,977.51,777.13,978.31,776.67,980.09Z"/><ellipse class="cls-19" cx="793.94" cy="965.17" rx="24.51" ry="20.16" transform="translate(-353.27 1460.98) rotate(-73.93)"/><path class="cls-15" d="M778.3,957.4s5.5,4,10.11.62,7.86-6.58,18.18-1.39,21.61,2.86,23.7-3-2.83-10.32-9.31-10,1.37-3.27-3.14-9.41-15.94.18-21.61-2.86-25.86-5.7-29.5,11.61Z"/><path class="cls-19" d="M774,960.86a4.14,4.14,0,0,0,5.68,1.54,4.23,4.23,0,0,0,.87-5.87,4.15,4.15,0,0,0-5.67-1.54A4.24,4.24,0,0,0,774,960.86Z"/><path class="cls-9" d="M818.89,951.62c-4.33,0-10.22-5.29-10.49-5.54l.51-.56c.07.07,6.94,6.24,10.9,5.23,1.53-.38,2.39-1.11,2.26-1.88s-1.22-1.43-2.75-1.28a8.59,8.59,0,0,1-5.26-.85l.41-.64a8,8,0,0,0,4.77.73c2.06-.21,3.38.83,3.57,1.91s-.48,2.16-2.81,2.75A4.5,4.5,0,0,1,818.89,951.62Z"/><path class="cls-9" d="M801.07,937.13a11.86,11.86,0,0,1-4.32-.76,47.08,47.08,0,0,1-4.87-2.33c-2.92-1.54-5.45-2.88-8.2-2.34l-.14-.75c3-.58,5.64.81,8.7,2.42a44.28,44.28,0,0,0,4.78,2.29c5.25,2.06,11.39-.91,11.77-1.23l.55.51A16.44,16.44,0,0,1,801.07,937.13Z"/><path class="cls-9" d="M772,942.05a1.06,1.06,0,0,1-.31,0c-.25-.1-.64-.4-.39-1.32l.05-.12c.42-.6,2.61-3.58,4.12-2.63.2.13.6.5.2,1.3C775.14,940.24,773.13,942.05,772,942.05Zm0-1.11c-.07.29,0,.37,0,.37a4.58,4.58,0,0,0,2.33-1.52c.74-.75.8-1.15.77-1.21C774.38,938.15,772.84,939.72,772,940.94Z"/><path class="cls-25" d="M797.8,965.81a.41.41,0,0,0,.31-.2.43.43,0,0,0-.16-.56,4.38,4.38,0,0,0-5.4.5.41.41,0,0,0,0,.58.44.44,0,0,0,.57.06,6.89,6.89,0,0,1,4.48-.42A.37.37,0,0,0,797.8,965.81Z"/><path class="cls-25" d="M794,969.9c-.15,1,.29,1.85,1,2s1.39-.58,1.54-1.55-.29-1.86-1-2S794.19,968.93,794,969.9Z"/><path class="cls-25" d="M812.07,971a.32.32,0,0,0,.29-.1.5.5,0,0,0,.08-.57,2.86,2.86,0,0,0-4-1.3.49.49,0,0,0-.24.52.3.3,0,0,0,.38.25,4.24,4.24,0,0,1,3.32,1.07A.28.28,0,0,0,812.07,971Z"/><path class="cls-25" d="M807,973.29a1.6,1.6,0,0,0,.17,2.19c.61.38,1.51,0,2-.84a1.62,1.62,0,0,0-.17-2.2A1.59,1.59,0,0,0,807,973.29Z"/><path class="cls-23" d="M795.27,983.62A9.15,9.15,0,0,1,786.9,979a.28.28,0,0,1,.11-.39.29.29,0,0,1,.39.1c3.27,5.78,9.92,4.16,10.2,4.09a.29.29,0,0,1,.35.21.29.29,0,0,1-.21.35A11.91,11.91,0,0,1,795.27,983.62Z"/><path class="cls-23" d="M786.32,980l-.09,0a.28.28,0,0,1-.18-.36,3.83,3.83,0,0,1,1.88-2,.33.33,0,0,1,.42.08.26.26,0,0,1-.05.37l-.09,0a3.25,3.25,0,0,0-1.62,1.64A.29.29,0,0,1,786.32,980Z"/><rect class="cls-15" x="819.78" y="1040.66" width="1.26" height="14.79" transform="translate(-286.43 308.86) rotate(-18.21)"/><path class="cls-9" d="M809.25,987.18a5.39,5.39,0,0,1-3.88-1.61c-3.45-3.42-3.28-11.32.36-17.63,2.24-3.89,5.39-6.45,8.42-6.85a5.44,5.44,0,0,1,4.71,1.56c3.44,3.41,3.28,11.32-.36,17.63-2.25,3.88-5.39,6.44-8.42,6.85A5.87,5.87,0,0,1,809.25,987.18Zm5.72-25.3a5.78,5.78,0,0,0-.71,0c-2.77.37-5.68,2.78-7.79,6.43h0c-3.47,6-3.69,13.44-.5,16.6a4.59,4.59,0,0,0,4,1.32c2.77-.37,5.69-2.77,7.8-6.43,3.46-6,3.69-13.44.5-16.6A4.58,4.58,0,0,0,815,961.88Z"/><g class="cls-20"><path class="cls-9" d="M785.21,958.67c-3,6.27-2.13,13.91,1.82,17.05s9.56.6,12.51-5.67,2.14-13.91-1.82-17.06S788.16,952.39,785.21,958.67Z"/></g><g class="cls-20"><path class="cls-9" d="M805.44,968.44c-3,6.3-2.56,13.95.89,17.09s8.66.56,11.62-5.75,2.56-13.95-.89-17.08S808.4,962.14,805.44,968.44Z"/></g><path class="cls-9" d="M791.46,977.4a6.86,6.86,0,0,1-4.29-1.52c-4.38-3.41-5.34-11.63-2.15-18.33,1.86-3.91,4.74-6.58,7.91-7.33a6.9,6.9,0,0,1,6,1.32c4.37,3.41,5.34,11.63,2.15,18.33-1.86,3.91-4.74,6.58-7.92,7.33A7.27,7.27,0,0,1,791.46,977.4Zm3.18-26.53a6.62,6.62,0,0,0-1.51.18c-2.88.68-5.62,3.25-7.34,6.86h0c-3,6.36-2.17,14.12,1.9,17.3a6.09,6.09,0,0,0,5.3,1.16c2.88-.68,5.62-3.25,7.34-6.86,3-6.36,2.17-14.12-1.9-17.3A6.05,6.05,0,0,0,794.64,950.87Z"/><path class="cls-9" d="M805.94,971.13a.82.82,0,0,1-.63-.31,7,7,0,0,0-5.31-2.23.8.8,0,0,1-.78-.82A.81.81,0,0,1,800,967a8.53,8.53,0,0,1,6.53,2.85.79.79,0,0,1-.14,1.11A.83.83,0,0,1,805.94,971.13Z"/><rect class="cls-23" x="765.08" y="1163.77" width="55.22" height="0.51" transform="translate(-391.28 401.45) rotate(-22.96)"/><path class="cls-19" d="M387.61,979.25s18.77-.87,21.75-29.66c3.07-29.59-30.87,0-30.87,0Z"/><path class="cls-19" d="M368.47,884.85c1.14.45,20.13,5.6,28.54,34.25s-19.82,6.06-19.82,6.06Z"/><path class="cls-15" d="M343.45,1279.51s.26,10.29,7.23,13.2,27.15,5.52,19.6,12.14c-4.32,3.8-24.72,1.34-30.48,1.34s-11.16,2.51-15.44-1.34c-4.71-4.24,0-25.34,0-25.34s5,2.59,9.44,2.47C340.24,1281.81,343.45,1279.51,343.45,1279.51Z"/><path class="cls-15" d="M263.45,1279.51s.26,10.29,7.23,13.19,27.15,5.53,19.6,12.15c-4.32,3.8-24.72,1.34-30.48,1.34s-11.16,2.51-15.44-1.34c-4.71-4.24,0-25.34,0-25.34s5,2.58,9.44,2.47C260.24,1281.81,263.45,1279.51,263.45,1279.51Z"/><path class="cls-28" d="M395.23,997.28s1.29,43.1-12.47,125.77c-9.93,59.68-21.65,119.81-27.4,148.65a22.49,22.49,0,0,1-21,18.26l-5.53.22c-11.11.45-20.13-9.1-19.32-20.45l13.95-195.06,3.44-64.2Z"/><path class="cls-15" d="M269.41,1035.21c.64,5.24,30.29,4.61,66.6,0s64.58-12.46,63.95-17.71-29.93-5.88-66.24-1.28S268.78,1030,269.41,1035.21Z"/><path class="cls-28" d="M353.54,1028.06l-77.52,249a25,25,0,0,1-23.32,17.75l-4.66.08c-11,.19-19.41-10-17.41-21.05l42.41-234a7.68,7.68,0,0,1,5.35-5.76C292.93,1029.91,355,1017.76,353.54,1028.06Z"/><path class="cls-29" d="M281.53,891.83s10.32-29,47.06-27.7,64.49,49.61,71.37,153.38c0,0-60.17-13.19-130.66,17.59C269.3,1035.1,265.4,934.13,281.53,891.83Z"/><path class="cls-29" d="M255.73,890.08l26,16.67s66.91,6.69,84.68,3.47S387,893.93,387,893.93s-16.9-23.17-49-28.93a111.14,111.14,0,0,0-25.57-.51C280.57,867.92,255.73,890.08,255.73,890.08Z"/><path class="cls-23" d="M318.89,1139.37l-1.24-.41,16.67-50.68a49.41,49.41,0,0,1,22.31-27.51l.65,1.14a48,48,0,0,0-21.72,26.78Z"/><path class="cls-15" d="M255.36,890.66c-.9,2.62,5.9,7.53,15.21,11s17.57,4.08,18.47,1.46-5.9-7.52-15.2-11S256.26,888,255.36,890.66Z"/><path class="cls-19" d="M319.21,981.33l.31-19a4.91,4.91,0,0,0-4.55-5c-13.19-.94-22.42-5-27.48-12.18-7-9.93-6.28-25.36-4.32-36,1-5.48-.81-9.14-7.42-12.65a45.16,45.16,0,0,0-12.7-4.32c-2.81-.48-5.6.65-6.32,3.41a115,115,0,0,0-3.31,18.92c-1.66,18.76,2,35.07,10.46,47.19,10.45,14.86,27.28,23.09,50.09,24.48A4.93,4.93,0,0,0,319.21,981.33Z"/><g class="cls-7"><path class="cls-21" d="M270.73,956.69a7.62,7.62,0,0,1-5.6-3.07,8.51,8.51,0,0,1-1.92-4.51,4,4,0,0,1,5.44-4.38,8.95,8.95,0,0,1,5.91,7.34,4.27,4.27,0,0,1-1.41,3.81A3.78,3.78,0,0,1,270.73,956.69Zm-3.66-10.93a2.58,2.58,0,0,0-1.64.53,3,3,0,0,0-.94,2.72,7.15,7.15,0,0,0,1.63,3.81c1.88,2.33,4.73,3.28,6.23,2.07a3,3,0,0,0,.94-2.72,7.72,7.72,0,0,0-5-6.22A4.16,4.16,0,0,0,267.07,945.76Z"/></g><path class="cls-28" d="M298.61,1029.52s72.47-13.84,96-7.31l-11.26,16.7-41.89,2.37Z"/><path class="cls-15" d="M327.87,959.16l62.47,0a3,3,0,0,0,2.88-2.06l13-38.77a3,3,0,0,0-2.88-4l-60.08,0a6.35,6.35,0,0,0-6,4.32L325,955.2A3,3,0,0,0,327.87,959.16Z"/><path class="cls-15" d="M331.79,959.17l62.47,0a3,3,0,0,0,2.88-2.06l13-38.77a3,3,0,0,0-2.88-4l-60.08,0a6.36,6.36,0,0,0-6,4.32L328.91,955.2A3,3,0,0,0,331.79,959.17Z"/><path class="cls-1" d="M375.57,935.51c0-1.47-1.7-2.07-3.18-2.07s-3.9,1.62-3.89,3.68c0,2.22,1.76,2.51,3.24,2.51S375.57,937.39,375.57,935.51Z"/><path class="cls-16" d="M336.24,934l-.39-.11c.13-.47,3.11-11.65,5.12-15.27s4.54-4.39,4.64-4.41l.11.39s-2.44.71-4.39,4.22S336.27,933.85,336.24,934Z"/><rect class="cls-16" x="324.51" y="945.25" width="15.33" height="0.41" transform="translate(-669.85 958.56) rotate(-71.39)"/><path class="cls-19" d="M409.74,945.32s1,8.14-5.85,8.91c-8.77,1-20.8-6.87-15.25-7.58a60.51,60.51,0,0,1,12.15.3s-18.36-2.61-16.65-6.52S401.61,939,401.61,939s-17.69-4.35-14.95-7.44,17-.95,17-.95-17.47-3.25-14.22-6.76,12,.13,16.05.77c3.8.61,4.73,3.43,4,7.32,0,0,1.4,4.37.34,6.77-.41.92.34,2,.34,2.74A28.09,28.09,0,0,1,409.74,945.32Z"/><path class="cls-19" d="M310.13,956.14s4.63-14,12.56-17.45,20.65-1.82,16.19,1.35a57.28,57.28,0,0,1-11.29,5.65s14.82-4.61,14.4-.67-13.36,7.81-13.36,7.81,18.08-4.07,16.48-.49-15.36,6.59-15.36,6.59,17-3.12,15,1-14,2.48-14.47,6.42-3.44,19.41-14.52,19.57Z"/><path class="cls-22" d="M322.3,948.94l-.57-.27c1.22-2.57,5.62-3.27,5.81-3.3l.1.63S323.38,946.68,322.3,948.94Z"/><path class="cls-22" d="M322.23,956.75l-.51-.39c2.41-3.21,6.69-3.82,6.87-3.85l.09.64C328.63,953.15,324.48,953.75,322.23,956.75Z"/><path class="cls-22" d="M323.8,962.54l-.6-.23c1.07-2.84,6.28-3.67,6.5-3.7l.1.63C329.74,959.25,324.73,960,323.8,962.54Z"/><path class="cls-22" d="M402.88,954.68a27.25,27.25,0,0,1-5.79-.78l.15-.61c1.88.47,7.13,1.39,8.73.06l.41.49A5.72,5.72,0,0,1,402.88,954.68Z"/><path class="cls-17" d="M349.25,811.15s5-13.66-7.16-17.92-11.58,5.82-14.41,7.67,1.17,10.32,6.93,12.7S349.25,811.15,349.25,811.15Z"/><path class="cls-19" d="M330,873.85c5.84-1.89,2.44-9.47,2.44-9.47-2.64-.46-4.58-2.21-4.41-4.88l.23-3.29.11-1.62.34-5.21.31-4.67,1.28-19.16-7.86,18.53-1.33,3.15-4.61,10.86a12.06,12.06,0,0,1-8.33,7C310.74,868,323.1,876.07,330,873.85Z"/><path class="cls-15" d="M321.06,847.23s2.34,6.06,7.26,7.36l.34-5.21C325.63,848.3,321.06,847.23,321.06,847.23Z"/><path class="cls-17" d="M308.58,822.51s.76,3.14-1,9.6c-2.6,9.44,8.2,13.31,10.94,10.61.34-.33-.2-16.37-.2-16.37l-3.45-2Z"/><ellipse class="cls-19" cx="331.14" cy="828.61" rx="18" ry="22.21" transform="matrix(1, -0.01, 0.01, 1, -4.44, 1.79)"/><path class="cls-17" d="M338.17,811.53c-.49.68,2.4,12.09-18.75,14.93s-8.57-22.9,7-23.57c22.54-1,25.91,14.19,23.77,19.65S338.17,811.53,338.17,811.53Z"/><path class="cls-17" d="M321.74,822.81s-8.6,9.17-5.55,18.47c0,0-5.05-5.45-5.17-7.5s1.17-9.44,1.17-9.44Z"/><path class="cls-19" d="M315.56,832c2.05,1.94,4.9,2.12,6.37.41s1-4.66-1.05-6.6-4.9-2.12-6.37-.41S313.51,830.11,315.56,832Z"/><path class="cls-25" d="M332.88,828.81a.4.4,0,0,0,.27-.24.41.41,0,0,0-.23-.53,4.43,4.43,0,0,0-5.29,1.21.42.42,0,0,0,0,.58.45.45,0,0,0,.58,0,7.06,7.06,0,0,1,4.4-1A.39.39,0,0,0,332.88,828.81Z"/><path class="cls-25" d="M329.66,833.33c0,1,.53,1.78,1.24,1.8s1.3-.76,1.33-1.73-.53-1.79-1.24-1.8S329.69,832.35,329.66,833.33Z"/><path class="cls-25" d="M347.5,830.87a.46.46,0,0,0,.35-.12.42.42,0,0,0,0-.58,4.45,4.45,0,0,0-5.36-.9.41.41,0,0,0-.2.54.45.45,0,0,0,.54.21,6.94,6.94,0,0,1,4.45.74A.41.41,0,0,0,347.5,830.87Z"/><path class="cls-25" d="M342.81,833.82a1.59,1.59,0,0,0,.46,2.14c.64.29,1.49-.21,1.89-1.1a1.6,1.6,0,0,0-.46-2.14C344.05,832.44,343.21,832.93,342.81,833.82Z"/><g class="cls-20"><path class="cls-9" d="M322.76,827.92c-1.62,5.28-.09,11.18,3.42,13.19s7.65-.64,9.27-5.92S335.53,824,332,822,324.37,822.64,322.76,827.92Z"/></g><g class="cls-20"><path class="cls-9" d="M340.73,831.1c-1,5.33.78,11,3.95,12.67s6.57-1.29,7.56-6.62-.77-11-3.95-12.67S341.73,825.77,340.73,831.1Z"/></g><path class="cls-15" d="M321.79,831.72c0,.28,0,.57,0,.84a12.15,12.15,0,0,0,2.5,7,6.91,6.91,0,0,0,2,1.69,5.67,5.67,0,0,0,2.23.72l.63,0a6.24,6.24,0,0,0,2.09-.43,8.82,8.82,0,0,0,4.28-4,14,14,0,0,0,1.13-2.64,15.26,15.26,0,0,0,.61-3c.05-.44.07-.86.08-1.29.06-3.79-1.27-7.35-3.6-9.23a6.74,6.74,0,0,0-.91-.63,5.57,5.57,0,0,0-4.95-.32,9.55,9.55,0,0,0-5,5.48c-.16.39-.29.78-.42,1.19-.08.24-.15.49-.21.73a16.19,16.19,0,0,0-.39,2.15A13.35,13.35,0,0,0,321.79,831.72Zm11.13,8a6.9,6.9,0,0,1-1.92,1.2,4.88,4.88,0,0,1-4.36-.29,6.5,6.5,0,0,1-2-1.8,12,12,0,0,1-2.16-7.23h0c0-.42,0-.86.07-1.29a10.19,10.19,0,0,1,.16-1.22,14.28,14.28,0,0,1,1-3.39c.13-.28.26-.55.41-.81a.1.1,0,0,1,0,0l0-.09a10.22,10.22,0,0,1,.95-1.41,7.36,7.36,0,0,1,3-2.31,5,5,0,0,1,4.36.28,6.36,6.36,0,0,1,.69.46c2.28,1.73,3.57,5.19,3.48,8.88a11.52,11.52,0,0,1-.09,1.3,14.58,14.58,0,0,1-.57,2.73,12.34,12.34,0,0,1-1.08,2.51,9.33,9.33,0,0,1-2,2.51Z"/><path class="cls-15" d="M340.45,834.21c0,.3,0,.59,0,.88s0,.59.08.87,0,.4.07.58c0,0,0,.06,0,.08s.05.31.08.47a0,0,0,0,1,0,0,16.49,16.49,0,0,1,0-4.49l-.22-.14c0,.3-.05.58-.07.87S340.45,833.93,340.45,834.21Zm0,0c0,.3,0,.59,0,.88s0,.59.08.87,0,.4.07.58c0,0,0,.06,0,.08s.05.31.08.47a0,0,0,0,1,0,0,16.49,16.49,0,0,1,0-4.49l-.22-.14c0,.3-.05.58-.07.87S340.45,833.93,340.45,834.21Zm0,0c0,.3,0,.59,0,.88s0,.59.08.87,0,.4.07.58c0,0,0,.06,0,.08s.05.31.08.47a0,0,0,0,1,0,0,16.49,16.49,0,0,1,0-4.49l-.22-.14c0,.3-.05.58-.07.87S340.45,833.93,340.45,834.21Zm0,0c0,.3,0,.59,0,.88s0,.59.08.87,0,.4.07.58c0,0,0,.06,0,.08s.05.31.08.47a0,0,0,0,1,0,0,16.49,16.49,0,0,1,0-4.49l-.22-.14c0,.3-.05.58-.07.87S340.45,833.93,340.45,834.21Zm0,0c0,.3,0,.59,0,.88s0,.59.08.87,0,.4.07.58c0,0,0,.06,0,.08s.05.31.08.47a0,0,0,0,1,0,0,16.49,16.49,0,0,1,0-4.49l-.22-.14c0,.3-.05.58-.07.87S340.45,833.93,340.45,834.21Zm0,0c0,.3,0,.59,0,.88s0,.59.08.87,0,.4.07.58c0,0,0,.06,0,.08s.05.31.08.47a0,0,0,0,1,0,0,16.49,16.49,0,0,1,0-4.49l-.22-.14c0,.3-.05.58-.07.87S340.45,833.93,340.45,834.21Zm0,0c0,.3,0,.59,0,.88s0,.59.08.87,0,.4.07.58c0,0,0,.06,0,.08s.05.31.08.47a0,0,0,0,1,0,0,16.49,16.49,0,0,1,0-4.49l-.22-.14c0,.3-.05.58-.07.87S340.45,833.93,340.45,834.21Zm0,0c0,.3,0,.59,0,.88s0,.59.08.87,0,.4.07.58c0,0,0,.06,0,.08s.05.31.08.47a0,0,0,0,1,0,0,16.49,16.49,0,0,1,0-4.49l-.22-.14c0,.3-.05.58-.07.87S340.45,833.93,340.45,834.21Zm-.53.83a14.46,14.46,0,0,0,1,5.42h0a7,7,0,0,0,2.84,3.51l.23.13h0a4.21,4.21,0,0,0,2,.47,4.52,4.52,0,0,0,1.74-.36c2.26-.93,4.19-3.53,5.15-7,1.58-5.59.11-11.7-3.24-13.63l-.22-.12h0a5.37,5.37,0,0,0-.88-.35,4.66,4.66,0,0,0-1.28-.14,4.93,4.93,0,0,0-1.6.36c-2.26.93-4.19,3.53-5.15,7l-.18.67c-.09.42-.18.84-.24,1.27A16.07,16.07,0,0,0,339.92,835Zm.81,2.08a16.49,16.49,0,0,1,0-4.49c.07-.45.15-.89.25-1.33.06-.26.12-.51.19-.77a13.3,13.3,0,0,1,1.94-4.15,7,7,0,0,1,2.71-2.31L346,824a4,4,0,0,1,1.49-.31,3.57,3.57,0,0,1,1.28.23,4.78,4.78,0,0,1,.61.28c3.1,1.79,4.42,7.55,2.93,12.87l0,.07h0v.06c-.92,3.16-2.68,5.53-4.72,6.37a3.66,3.66,0,0,1-3,0,1.68,1.68,0,0,1-.33-.16,1.81,1.81,0,0,1-.27-.18l-.08-.05h0l0,0A5.74,5.74,0,0,1,342,841a11.21,11.21,0,0,1-1.21-3.73A1.25,1.25,0,0,0,340.73,837.12Zm-.28-2.91c0,.3,0,.59,0,.88s0,.59.08.87,0,.4.07.58c0,0,0,.06,0,.08s.05.31.08.47a0,0,0,0,1,0,0,16.49,16.49,0,0,1,0-4.49l-.22-.14c0,.3-.05.58-.07.87S340.45,833.93,340.45,834.21Zm0,0c0,.3,0,.59,0,.88s0,.59.08.87,0,.4.07.58c0,0,0,.06,0,.08s.05.31.08.47a0,0,0,0,1,0,0,16.49,16.49,0,0,1,0-4.49l-.22-.14c0,.3-.05.58-.07.87S340.45,833.93,340.45,834.21Zm0,0c0,.3,0,.59,0,.88s0,.59.08.87,0,.4.07.58c0,0,0,.06,0,.08s.05.31.08.47a0,0,0,0,1,0,0,16.49,16.49,0,0,1,0-4.49l-.22-.14c0,.3-.05.58-.07.87S340.45,833.93,340.45,834.21Zm0,0c0,.3,0,.59,0,.88s0,.59.08.87,0,.4.07.58c0,0,0,.06,0,.08s.05.31.08.47a0,0,0,0,1,0,0,16.49,16.49,0,0,1,0-4.49l-.22-.14c0,.3-.05.58-.07.87S340.45,833.93,340.45,834.21Zm0,0c0,.3,0,.59,0,.88s0,.59.08.87,0,.4.07.58c0,0,0,.06,0,.08s.05.31.08.47a0,0,0,0,1,0,0,16.49,16.49,0,0,1,0-4.49l-.22-.14c0,.3-.05.58-.07.87S340.45,833.93,340.45,834.21Zm0,0c0,.3,0,.59,0,.88s0,.59.08.87,0,.4.07.58c0,0,0,.06,0,.08s.05.31.08.47a0,0,0,0,1,0,0,16.49,16.49,0,0,1,0-4.49l-.22-.14c0,.3-.05.58-.07.87S340.45,833.93,340.45,834.21Zm0,0c0,.3,0,.59,0,.88s0,.59.08.87,0,.4.07.58c0,0,0,.06,0,.08s.05.31.08.47a0,0,0,0,1,0,0,16.49,16.49,0,0,1,0-4.49l-.22-.14c0,.3-.05.58-.07.87S340.45,833.93,340.45,834.21Z"/><path class="cls-15" d="M341.19,832.79a.64.64,0,0,0,.39-1.14,6.93,6.93,0,0,0-5.64-.87.64.64,0,1,0,.28,1.24,5.65,5.65,0,0,1,4.58.64A.65.65,0,0,0,341.19,832.79Z"/><path class="cls-17" d="M321.51,807s-1.77-14.42-14.52-12.71-10.1,8.91-9.35,13.39c.55,3.33,5.73,8.65,11.95,8.16S321.51,807,321.51,807Z"/><path class="cls-17" d="M309.2,850.33a.39.39,0,0,1-.3-.65,17.62,17.62,0,0,1,8.34-4.75.38.38,0,0,1,.47.29.38.38,0,0,1-.29.47,17.23,17.23,0,0,0-7.93,4.51A.39.39,0,0,1,309.2,850.33Z"/><path class="cls-23" d="M336.43,845.46a11,11,0,0,1-5.13-1.72.21.21,0,0,1-.06-.3.22.22,0,0,1,.29-.06c.05,0,4.75,3.07,7.34.82a.21.21,0,0,1,.27.31A4,4,0,0,1,336.43,845.46Z"/></g></g></svg>